<svg width="50" height="50" viewBox="0 0 50 50" fill="none" xmlns="http://www.w3.org/2000/svg">
<g clip-path="url(#clip0_3_732)">
<mask id="mask0_3_732" style="mask-type:alpha" maskUnits="userSpaceOnUse" x="-1" y="0" width="52" height="51">
<path d="M47.0767 0H2.92383C1.30581 0 -0.00585938 1.31166 -0.00585938 2.92969V47.0826C-0.00585938 48.7006 1.30581 50.0122 2.92383 50.0122H47.0767C48.6947 50.0122 50.0064 48.7006 50.0064 47.0826V2.92969C50.0064 1.31167 48.6947 0 47.0767 0Z" fill="#2979FF"/>
</mask>
<g mask="url(#mask0_3_732)">
<path d="M50.0064 0H-0.00585938V50.0122H50.0064V0Z" fill="#2979FF"/>
<path d="M-0.00585938 32.7258L32.7199 0H-0.00585938V32.7258Z" fill="#448AFF"/>
<path d="M-0.00579834 50.0122L12.4973 29.1738L25.0003 50.0122H-0.00579834Z" fill="#1565C0"/>
<path d="M12.4967 38.5512L15.31 33.8624L12.4967 29.1738L9.68359 33.8624L12.4967 38.5512Z" fill="white"/>
<path d="M50.0057 42.7187L37.5027 20.8385L20.832 50.0122H50.0057V42.7187Z" fill="#0D57A1"/>
<path d="M7.28711 16.1498C7.28711 18.1649 8.91875 19.7965 10.9338 19.7965H25.5208C27.5359 19.7965 29.1675 18.1649 29.1675 16.1498C29.1675 11.8332 25.6698 8.33533 21.353 8.33533C18.4576 8.33533 15.935 9.91494 14.5847 12.2561C13.8387 11.7539 12.9427 11.4611 11.9757 11.4611C9.38661 11.4612 7.28711 13.5607 7.28711 16.1498Z" fill="#E8EAF6"/>
<path d="M37.5035 33.3414L41.0773 27.0899L37.5035 20.8385L33.9297 27.0899L37.5035 33.3414Z" fill="white"/>
<path d="M21.353 8.33545C18.4576 8.33545 15.935 9.91506 14.5847 12.2562C13.8387 11.754 12.9427 11.4612 11.9757 11.4612C9.38647 11.4612 7.28711 13.5607 7.28711 16.1498C7.28711 18.1649 8.91875 19.7965 10.9338 19.7965H12.9229L23.937 8.78242C23.1275 8.49791 22.2605 8.33545 21.353 8.33545Z" fill="white"/>
</g>
</g>
<defs>
<clipPath id="clip0_3_732">
<rect width="50" height="50" fill="white"/>
</clipPath>
</defs>
</svg>
