<svg width="50" height="50" viewBox="0 0 50 50" fill="none" xmlns="http://www.w3.org/2000/svg">
<path d="M6.24997 3.00001C6.24997 1.34296 7.59294 0 9.24998 0H31.25L43.75 10.5V47C43.75 48.657 42.4071 50 40.75 50H9.24998C7.59294 50 6.24997 48.657 6.24997 47V3.00001Z" fill="#00C250"/>
<path d="M31.25 0V7.49997C31.25 9.15701 32.5929 10.5 34.25 10.5H43.75" fill="#00A344"/>
<path d="M17.8288 25.0354L20.3406 21.0938H18.3564L16.8538 23.7443L15.3857 21.0938H13.3327L15.8445 25.1039L13.1836 29.2969H15.1908L16.8538 26.4978L18.4137 29.2969H20.5126L17.8288 25.0354Z" fill="white"/>
<path d="M29.4473 21.0938H26.9584L25.4903 27.5603H25.4674L23.9763 21.0938H21.4645V29.2969H23.0702V22.4419H23.0932L24.5957 29.2969H26.2817L27.8186 22.4419H27.8416V29.2969H29.4473V21.0938Z" fill="white"/>
<path d="M32.8194 21.0938H31.099V29.2969H36.9141V27.8116H32.8194V21.0938Z" fill="white"/>
</svg>
