<svg width="20" height="20" viewBox="0 0 20 20" fill="none" xmlns="http://www.w3.org/2000/svg">
<rect width="20" height="20" rx="10" fill="#E0E4EE"/>
<path d="M9.95193 9.8668C10.4567 9.8668 10.8938 9.69418 11.2509 9.35361C11.608 9.01309 11.7891 8.59645 11.7891 8.11511C11.7891 7.63393 11.608 7.21723 11.2509 6.8766C10.8937 6.53614 10.4566 6.36353 9.95193 6.36353C9.44711 6.36353 9.01014 6.53614 8.65301 6.87666C8.29588 7.21718 8.11478 7.63388 8.11478 8.11511C8.11478 8.59645 8.29588 9.01315 8.65307 9.35367C9.01025 9.69413 9.44728 9.8668 9.95193 9.8668Z" fill="#8D96A9"/>
<path d="M13.1666 12.2679C13.1563 12.1261 13.1354 11.9716 13.1048 11.8083C13.0738 11.6439 13.034 11.4884 12.9862 11.3463C12.9369 11.1994 12.8699 11.0544 12.787 10.9154C12.701 10.7711 12.6 10.6455 12.4866 10.5421C12.3681 10.434 12.223 10.347 12.0551 10.2836C11.8879 10.2205 11.7026 10.1886 11.5043 10.1886C11.4264 10.1886 11.3511 10.219 11.2057 10.3093C11.1162 10.365 11.0115 10.4293 10.8947 10.5005C10.7947 10.5612 10.6594 10.6181 10.4922 10.6696C10.3291 10.7199 10.1635 10.7454 10 10.7454C9.83654 10.7454 9.67098 10.7199 9.50769 10.6696C9.34068 10.6181 9.20532 10.5613 9.10552 10.5006C8.98977 10.4301 8.88502 10.3657 8.79419 10.3093C8.64894 10.219 8.57358 10.1885 8.49571 10.1885C8.29739 10.1885 8.11211 10.2205 7.94492 10.2837C7.77721 10.347 7.63201 10.4339 7.51336 10.5422C7.40006 10.6456 7.29898 10.7712 7.21308 10.9154C7.13027 11.0544 7.06324 11.1994 7.01389 11.3463C6.96623 11.4884 6.92637 11.6439 6.89541 11.8083C6.86474 11.9713 6.84391 12.126 6.83361 12.268C6.82348 12.4072 6.81836 12.5516 6.81836 12.6975C6.81836 13.0771 6.94493 13.3845 7.19452 13.6111C7.44102 13.8348 7.7672 13.9483 8.16384 13.9483H11.8365C12.2332 13.9483 12.5592 13.8348 12.8058 13.6111C13.0554 13.3846 13.182 13.0772 13.182 12.6974C13.1819 12.5509 13.1768 12.4064 13.1666 12.2679Z" fill="#8D96A9"/>
</svg>
