<svg width="18" height="18" viewBox="0 0 18 18" fill="none" xmlns="http://www.w3.org/2000/svg">
<path d="M10.2441 0.308838V4.51866H14.454L10.2441 0.308838Z" fill="white"/>
<path d="M8.41797 13.2363C8.41797 10.028 11.028 7.41797 14.2363 7.41797C14.4142 7.41797 14.59 7.42648 14.7637 7.44214V5.5735H9.71765C9.42638 5.5735 9.19031 5.3373 9.19031 5.04616V0H1.52734C1.23607 0 1 0.236069 1 0.527344V17.4727C1 17.7639 1.23607 18 1.52734 18H10.8995C9.40001 16.9464 8.41797 15.2041 8.41797 13.2363Z" fill="white"/>
<path d="M16.9573 12.5823H15.4176V11.0427C15.4176 10.536 15.0068 10.125 14.4999 10.125C13.993 10.125 13.5822 10.536 13.5822 11.0427V12.5823H12.0427C11.5358 12.5823 11.125 12.9931 11.125 13.5C11.125 14.0069 11.5358 14.4177 12.0427 14.4177H13.5822V15.9573C13.5822 16.464 13.993 16.875 14.4999 16.875C15.0068 16.875 15.4176 16.464 15.4176 15.9573V14.4177H16.9573C17.4642 14.4177 17.875 14.0069 17.875 13.5C17.875 12.9931 17.4642 12.5823 16.9573 12.5823Z" fill="white"/>
</svg>
