<svg width="50" height="50" viewBox="0 0 50 50" fill="none" xmlns="http://www.w3.org/2000/svg">
<g clip-path="url(#clip0_10_85)">
<path d="M20.8369 41.6604C24.5673 41.6639 28.2291 40.6593 31.4357 38.753L33.8055 41.1171C34.5277 41.8381 35.6961 41.8418 36.4229 41.1255L44.3084 49.011C44.9322 49.6389 45.7805 49.9926 46.6656 49.9935C47.5507 49.9944 48.3998 49.6426 49.0249 49.016C50.325 47.7145 50.325 45.606 49.0249 44.3045L41.1344 36.4107C41.8511 35.6844 41.8474 34.5158 41.126 33.7941L38.7619 31.4233C43.5649 23.2895 42.2922 12.9418 35.6614 6.21424C29.0307 -0.513365 18.7027 -1.93584 10.5001 2.74862C2.29752 7.43308 -1.7252 17.0515 0.700027 26.1809C3.12525 35.3102 11.3909 41.6642 20.8369 41.6604ZM47.8416 47.8426C47.1832 48.4702 46.1474 48.4681 45.4917 47.8376L37.602 39.9479L39.9569 37.5931L47.8466 45.4828C48.1594 45.7961 48.3347 46.221 48.3338 46.6637C48.3328 47.1064 48.1557 47.5307 47.8416 47.8426ZM39.9469 34.9757C39.983 35.0113 40.0032 35.06 40.0028 35.1107C40.003 35.162 39.9826 35.2112 39.9461 35.2473L35.2529 39.9388C35.2217 39.983 35.1709 40.0095 35.1167 40.0095C35.0625 40.0095 35.0117 39.9831 34.9805 39.9388L32.8622 37.8272C34.7879 36.4608 36.4694 34.7795 37.8362 32.8541L39.9469 34.9757ZM20.8369 1.66206C31.4219 1.66206 40.0028 10.2429 40.0028 20.8279C40.0028 31.4129 31.4219 39.9938 20.8369 39.9938C10.2519 39.9938 1.67104 31.413 1.67104 20.8279C1.68301 10.2479 10.2568 1.67403 20.8369 1.66206Z" fill="#246BFE"/>
<path d="M20.8369 38.3272C30.5015 38.3272 38.3361 30.4926 38.3361 20.828C38.3361 11.1634 30.5015 3.32874 20.8369 3.32874C11.1723 3.32874 3.33765 11.1634 3.33765 20.828C3.34864 30.488 11.1769 38.3162 20.8369 38.3272ZM20.8369 4.99528C29.5811 4.99528 36.6696 12.0838 36.6696 20.828C36.6696 29.5721 29.5811 36.6607 20.8369 36.6607C12.0927 36.6607 5.00419 29.5721 5.00419 20.828C5.01387 12.0878 12.0967 5.00496 20.8369 4.99528Z" fill="#246BFE"/>
<path d="M13.3372 30.8275V32.4942C13.3372 32.9544 13.7103 33.3275 14.1705 33.3275C14.6308 33.3275 15.0038 32.9544 15.0038 32.4942V30.8275H16.6704V32.4942C16.6704 32.9544 17.0435 33.3275 17.5038 33.3275C17.964 33.3275 18.3371 32.9544 18.3371 32.4942V30.8275H20.0037V32.4942C20.0037 32.9544 20.3768 33.3275 20.837 33.3275C21.2973 33.3275 21.6703 32.9544 21.6703 32.4942V30.8275H23.337V32.4942C23.337 32.9544 23.71 33.3275 24.1703 33.3275C24.6305 33.3275 25.0036 32.9544 25.0036 32.4942V30.8275H26.6702V32.4942C26.6702 32.9544 27.0433 33.3275 27.5035 33.3275C27.9638 33.3275 28.3368 32.9544 28.3368 32.4942V30.8275C29.7175 30.8275 30.8367 29.7083 30.8367 28.3277H32.5033C32.9636 28.3277 33.3366 27.9546 33.3366 27.4944C33.3366 27.0341 32.9636 26.661 32.5033 26.661H30.8367V24.9944H32.5033C32.9636 24.9944 33.3366 24.6214 33.3366 24.1611C33.3366 23.7009 32.9636 23.3278 32.5033 23.3278H30.8367V21.6612H32.5033C32.9636 21.6612 33.3366 21.2881 33.3366 20.8279C33.3366 20.3676 32.9636 19.9945 32.5033 19.9945H30.8367V18.3279H32.5033C32.9636 18.3279 33.3366 17.9549 33.3366 17.4946C33.3366 17.0344 32.9636 16.6613 32.5033 16.6613H30.8367V14.9947H32.5033C32.9636 14.9947 33.3366 14.6216 33.3366 14.1614C33.3366 13.7011 32.9636 13.328 32.5033 13.328H30.8367C30.8367 11.9474 29.7175 10.8282 28.3368 10.8282V9.16156C28.3368 8.70131 27.9638 8.32825 27.5035 8.32825C27.0433 8.32825 26.6702 8.70131 26.6702 9.16156V10.8282H25.0036V9.16156C25.0036 8.70131 24.6305 8.32825 24.1703 8.32825C23.71 8.32825 23.337 8.70131 23.337 9.16156V10.8282H21.6703V9.16156C21.6703 8.70131 21.2973 8.32825 20.837 8.32825C20.3768 8.32825 20.0037 8.70131 20.0037 9.16156V10.8282H18.3371V9.16156C18.3371 8.70131 17.964 8.32825 17.5038 8.32825C17.0435 8.32825 16.6704 8.70131 16.6704 9.16156V10.8282H15.0038V9.16156C15.0038 8.70131 14.6308 8.32825 14.1705 8.32825C13.7103 8.32825 13.3372 8.70131 13.3372 9.16156V10.8282C11.9565 10.8282 10.8373 11.9474 10.8373 13.328H9.17071C8.71047 13.328 8.3374 13.7011 8.3374 14.1614C8.3374 14.6216 8.71047 14.9947 9.17071 14.9947H10.8373V16.6613H9.17071C8.71047 16.6613 8.3374 17.0344 8.3374 17.4946C8.3374 17.9549 8.71047 18.3279 9.17071 18.3279H10.8373V19.9945H9.17071C8.71047 19.9945 8.3374 20.3676 8.3374 20.8279C8.3374 21.2881 8.71047 21.6612 9.17071 21.6612H10.8373V23.3278H9.17071C8.71047 23.3278 8.3374 23.7009 8.3374 24.1611C8.3374 24.6214 8.71047 24.9944 9.17071 24.9944H10.8373V26.661H9.17071C8.71047 26.661 8.3374 27.0341 8.3374 27.4944C8.3374 27.9546 8.71047 28.3277 9.17071 28.3277H10.8373C10.8373 29.7083 11.9565 30.8275 13.3372 30.8275ZM12.5039 13.3283C12.5039 12.868 12.877 12.495 13.3372 12.495H28.3366C28.7968 12.495 29.1699 12.868 29.1699 13.3283V28.3277C29.1699 28.7879 28.7968 29.161 28.3366 29.161H13.3372C12.877 29.161 12.5039 28.7879 12.5039 28.3277V13.3283Z" fill="#246BFE"/>
<path fill-rule="evenodd" clip-rule="evenodd" d="M17 16C16.4477 16 16 16.4477 16 17V25C16 25.5523 16.4477 26 17 26H25C25.5523 26 26 25.5523 26 25V17C26 16.4477 25.5523 16 25 16H17ZM17.8 17C17.3582 17 17 17.3582 17 17.8V24.2C17 24.6418 17.3582 25 17.8 25H24.2C24.6418 25 25 24.6418 25 24.2V17.8C25 17.3582 24.6418 17 24.2 17H17.8Z" fill="#246BFE"/>
</g>
<defs>
<clipPath id="clip0_10_85">
<rect width="50" height="50" fill="white"/>
</clipPath>
</defs>
</svg>
