<svg width="50" height="50" viewBox="0 0 50 50" fill="none" xmlns="http://www.w3.org/2000/svg">
<g clip-path="url(#clip0_10_99)">
<path d="M9.58334 22.3575V46.6667C9.58334 48.5076 11.0757 50 12.9167 50H37.9167C39.7576 50 41.25 48.5076 41.25 46.6667V3.33333C41.25 1.49238 39.7576 0 37.9167 0H12.9167C11.0757 0 9.58334 1.49238 9.58334 3.33333V6.32167L9.23834 6.66667C8.92466 6.97842 8.74881 7.40275 8.75001 7.845V10.4883C8.74881 10.9306 8.92466 11.3549 9.23834 11.6667L9.58334 12.0117V12.9883L9.23834 13.3333C8.92466 13.6451 8.74881 14.0694 8.75001 14.5117V20.8333C8.74881 21.2756 8.92466 21.6999 9.23834 22.0117L9.58334 22.3575ZM22.0833 48.3333C21.6231 48.3333 21.25 47.9602 21.25 47.5C21.25 47.0398 21.6231 46.6667 22.0833 46.6667H28.75C29.2102 46.6667 29.5833 47.0398 29.5833 47.5C29.5833 47.9602 29.2102 48.3333 28.75 48.3333H22.0833ZM32.0833 1.66667V2.5C32.0833 2.96024 31.7102 3.33333 31.25 3.33333H19.5833C19.1231 3.33333 18.75 2.96024 18.75 2.5V1.66667H32.0833ZM10.4167 14.5117L10.7617 14.1667C11.0753 13.8549 11.2512 13.4306 11.25 12.9883V12.0117C11.2512 11.5694 11.0753 11.1451 10.7617 10.8333L10.4167 10.4883V7.845L10.7617 7.5C11.0753 7.18824 11.2512 6.76391 11.25 6.32167V3.33333C11.25 2.41286 11.9962 1.66667 12.9167 1.66667H17.0833V2.5C17.0833 3.88071 18.2026 5 19.5833 5H31.25C32.6307 5 33.75 3.88071 33.75 2.5V1.66667H37.9167C38.8371 1.66667 39.5833 2.41286 39.5833 3.33333V41.6667H15.4167C14.9564 41.6667 14.5833 42.0398 14.5833 42.5C14.5833 42.9602 14.9564 43.3333 15.4167 43.3333H39.5833V46.6667C39.5833 47.5871 38.8371 48.3333 37.9167 48.3333H31.0967C31.1954 48.0665 31.2472 47.7845 31.25 47.5C31.25 46.1193 30.1307 45 28.75 45H22.0833C20.7026 45 19.5833 46.1193 19.5833 47.5C19.5861 47.7845 19.638 48.0665 19.7367 48.3333H12.9167C11.9962 48.3333 11.25 47.5871 11.25 46.6667V22.3575C11.2511 21.915 11.0752 21.4905 10.7617 21.1783L10.4167 20.8333V14.5117Z" fill="#246BFE"/>
<path d="M13.7501 11.6666C14.2103 11.6666 14.5834 11.2935 14.5834 10.8333V8.33329H17.0834C17.5436 8.33329 17.9167 7.9602 17.9167 7.49996C17.9167 7.03972 17.5436 6.66663 17.0834 6.66663H13.7501C13.2898 6.66663 12.9167 7.03972 12.9167 7.49996V10.8333C12.9167 11.2935 13.2898 11.6666 13.7501 11.6666Z" fill="#246BFE"/>
<path d="M33.7501 8.33329H36.2501V10.8333C36.2501 11.2935 36.6232 11.6666 37.0834 11.6666C37.5436 11.6666 37.9167 11.2935 37.9167 10.8333V7.49996C37.9167 7.03972 37.5436 6.66663 37.0834 6.66663H33.7501C33.2898 6.66663 32.9167 7.03972 32.9167 7.49996C32.9167 7.9602 33.2898 8.33329 33.7501 8.33329Z" fill="#246BFE"/>
<path d="M13.7501 40H17.0834C17.5436 40 17.9167 39.6269 17.9167 39.1667C17.9167 38.7064 17.5436 38.3333 17.0834 38.3333H14.5834V35.8333C14.5834 35.3731 14.2103 35 13.7501 35C13.2898 35 12.9167 35.3731 12.9167 35.8333V39.1667C12.9167 39.6269 13.2898 40 13.7501 40Z" fill="#246BFE"/>
<path d="M33.7501 40H37.0834C37.5436 40 37.9167 39.6269 37.9167 39.1667V35.8333C37.9167 35.3731 37.5436 35 37.0834 35C36.6232 35 36.2501 35.3731 36.2501 35.8333V38.3333H33.7501C33.2898 38.3333 32.9167 38.7064 32.9167 39.1667C32.9167 39.6269 33.2898 40 33.7501 40Z" fill="#246BFE"/>
<path d="M34.4141 22.2422C34.7377 22.2422 35 21.9798 35 21.6562C35 21.3327 34.7377 21.0703 34.4141 21.0703H32.6172V19.8984H34.4141C34.7377 19.8984 35 19.6361 35 19.3125C35 18.9889 34.7377 18.7266 34.4141 18.7266H32.6172V16.9688C32.6172 16.6452 32.3548 16.3828 32.0312 16.3828H30.2734V14.5859C30.2734 14.2623 30.0111 14 29.6875 14C29.3639 14 29.1016 14.2623 29.1016 14.5859V16.3828H27.9297V14.5859C27.9297 14.2623 27.6673 14 27.3438 14C27.0202 14 26.7578 14.2623 26.7578 14.5859V16.3828H25.5859V14.5859C25.5859 14.2623 25.3236 14 25 14C24.6764 14 24.4141 14.2623 24.4141 14.5859V16.3828H23.2422V14.5859C23.2422 14.2623 22.9798 14 22.6562 14C22.3327 14 22.0703 14.2623 22.0703 14.5859V16.3828H20.8984V14.5859C20.8984 14.2623 20.6361 14 20.3125 14C19.9889 14 19.7266 14.2623 19.7266 14.5859V16.3828H17.9688C17.6452 16.3828 17.3828 16.6452 17.3828 16.9688V18.7266H15.5859C15.2623 18.7266 15 18.9889 15 19.3125C15 19.6361 15.2623 19.8984 15.5859 19.8984H17.3828V21.0703H15.5859C15.2623 21.0703 15 21.3327 15 21.6562C15 21.9798 15.2623 22.2422 15.5859 22.2422H17.3828V23.4141H15.5859C15.2623 23.4141 15 23.6764 15 24C15 24.3236 15.2623 24.5859 15.5859 24.5859H17.3828V25.7578H15.5859C15.2623 25.7578 15 26.0202 15 26.3438C15 26.6673 15.2623 26.9297 15.5859 26.9297H17.3828V28.1016H15.5859C15.2623 28.1016 15 28.3639 15 28.6875C15 29.0111 15.2623 29.2734 15.5859 29.2734H17.3828V31.0312C17.3828 31.3548 17.6452 31.6172 17.9688 31.6172H19.7266V33.4141C19.7266 33.7377 19.9889 34 20.3125 34C20.6361 34 20.8984 33.7377 20.8984 33.4141V31.6172H22.0703V33.4141C22.0703 33.7377 22.3327 34 22.6562 34C22.9798 34 23.2422 33.7377 23.2422 33.4141V31.6172H24.4141V33.4141C24.4141 33.7377 24.6764 34 25 34C25.3236 34 25.5859 33.7377 25.5859 33.4141V31.6172H26.7578V33.4141C26.7578 33.7377 27.0202 34 27.3438 34C27.6673 34 27.9297 33.7377 27.9297 33.4141V31.6172H29.1016V33.4141C29.1016 33.7377 29.3639 34 29.6875 34C30.0111 34 30.2734 33.7377 30.2734 33.4141V31.6172H32.0312C32.3548 31.6172 32.6172 31.3548 32.6172 31.0312V29.2734H34.4141C34.7377 29.2734 35 29.0111 35 28.6875C35 28.3639 34.7377 28.1016 34.4141 28.1016H32.6172V26.9297H34.4141C34.7377 26.9297 35 26.6673 35 26.3438C35 26.0202 34.7377 25.7578 34.4141 25.7578H32.6172V24.5859H34.4141C34.7377 24.5859 35 24.3236 35 24C35 23.6764 34.7377 23.4141 34.4141 23.4141H32.6172V22.2422H34.4141ZM31.4453 30.4453H18.5547V17.5547H31.4453V30.4453Z" fill="#246BFE"/>
</g>
<defs>
<clipPath id="clip0_10_99">
<rect width="50" height="50" fill="white"/>
</clipPath>
</defs>
</svg>
