<svg width="9" height="8" viewBox="0 0 9 8" fill="none" xmlns="http://www.w3.org/2000/svg">
<path d="M8.64103 1.68355C8.74701 1.78411 8.8 1.90622 8.8 2.04988C8.8 2.19354 8.74701 2.31565 8.64103 2.41621L3.75845 7.04921C3.65247 7.14977 3.52378 7.20005 3.37239 7.20005C3.22099 7.20005 3.0923 7.14977 2.98632 7.04921L0.158968 4.36638C0.0529892 4.26582 0 4.14371 0 4.00005C0 3.85639 0.0529892 3.73428 0.158968 3.63372L0.931097 2.90106C1.03708 2.8005 1.16576 2.75022 1.31716 2.75022C1.46856 2.75022 1.59725 2.8005 1.70323 2.90106L3.37239 4.49029L7.09677 0.950891C7.20275 0.850329 7.33144 0.800049 7.48284 0.800049C7.63424 0.800049 7.76292 0.850329 7.8689 0.950891L8.64103 1.68355Z" fill="white"/>
</svg>
