<svg width="20" height="20" viewBox="0 0 20 20" fill="none" xmlns="http://www.w3.org/2000/svg">
<g clip-path="url(#clip0_3_1030)">
<path d="M5.51665 17.6985C5.61695 17.5568 5.76625 17.4573 5.93562 17.4192C6.10498 17.381 6.28235 17.407 6.43336 17.4921L6.49516 17.5291C6.64513 17.6155 6.75757 17.7544 6.81075 17.919C6.86394 18.0836 6.85409 18.2622 6.78311 18.4203C6.74287 18.5094 6.6844 18.5892 6.61145 18.6545C6.53851 18.7198 6.45271 18.7691 6.35958 18.7993C6.26646 18.8295 6.16808 18.8399 6.07078 18.8298C5.97348 18.8197 5.87943 18.7894 5.79468 18.7407L5.73287 18.7037C5.64953 18.6548 5.57729 18.5891 5.5207 18.5108C5.46412 18.4325 5.42441 18.3434 5.4041 18.2489C5.38378 18.1545 5.38329 18.0568 5.40267 17.962C5.42204 17.8673 5.46085 17.7776 5.51665 17.6985Z" fill="white"/>
<path d="M4.39936 16.7534C4.33081 16.8228 4.24855 16.8772 4.15783 16.913C4.06712 16.9489 3.96995 16.9654 3.87254 16.9617C3.77514 16.9579 3.67964 16.9338 3.59217 16.891C3.50469 16.8482 3.42716 16.7877 3.36454 16.7132L3.33308 16.6587C3.27065 16.5843 3.22443 16.4978 3.19737 16.4046C3.17032 16.3113 3.16302 16.2134 3.17593 16.1171C3.18885 16.0208 3.2217 15.9282 3.27239 15.8452C3.32309 15.7622 3.39051 15.6906 3.47038 15.635C3.61372 15.535 3.7892 15.492 3.96238 15.5145C4.13555 15.5369 4.29393 15.6232 4.40643 15.7565L4.44138 15.817C4.55164 15.9504 4.60837 16.1199 4.60061 16.2929C4.59284 16.4659 4.52114 16.63 4.39936 16.7534Z" fill="white"/>
<path d="M3.06563 13.4384L3.10058 13.4989C3.15913 13.6618 3.15506 13.8407 3.08916 14.001C3.02326 14.1613 2.90022 14.2917 2.74383 14.3668C2.65567 14.4093 2.55961 14.4328 2.46186 14.436C2.36411 14.4391 2.26683 14.4218 2.17627 14.3851C2.08572 14.3484 2.0039 14.2932 1.93609 14.223C1.86828 14.1527 1.81598 14.0691 1.78255 13.9774L1.7476 13.9168C1.71441 13.8253 1.70071 13.7279 1.7074 13.6308C1.71408 13.5336 1.74099 13.4389 1.78642 13.3526C1.83184 13.2664 1.89477 13.1905 1.97117 13.1299C2.04758 13.0692 2.13579 13.0252 2.23015 13.0005C2.39923 12.9561 2.57867 12.9765 2.73325 13.0575C2.88782 13.1385 3.00637 13.2743 3.06563 13.4384Z" fill="white"/>
<path d="M11.0619 19.1705C11.0469 18.9973 11.0971 18.8246 11.2027 18.6861C11.3082 18.5475 11.4615 18.4531 11.6328 18.4212L11.6874 18.3897C11.8604 18.3579 12.039 18.3923 12.1875 18.486C12.3361 18.5797 12.4438 18.7258 12.4892 18.8954C12.5143 18.9892 12.5195 19.0872 12.5045 19.1832C12.4896 19.2792 12.4548 19.3711 12.4023 19.453C12.3499 19.5349 12.281 19.6051 12.2 19.659C12.119 19.7129 12.0276 19.7494 11.9318 19.7661L11.8772 19.7977C11.7818 19.8141 11.684 19.8106 11.5901 19.7874C11.4962 19.7642 11.4081 19.7218 11.3315 19.6629C11.2549 19.6039 11.1914 19.5298 11.145 19.445C11.0986 19.3603 11.0703 19.2668 11.0619 19.1705Z" fill="white"/>
<path d="M4.47393 5.86944L4.41931 5.90098C4.30631 6.0355 4.14692 6.12283 3.97274 6.14565C3.79855 6.16847 3.62228 6.12512 3.47886 6.02419C3.39959 5.96831 3.33286 5.89655 3.28291 5.81346C3.23296 5.73037 3.20088 5.63778 3.18871 5.54157C3.17654 5.44535 3.18455 5.34762 3.21222 5.25457C3.23989 5.16152 3.28663 5.0752 3.34945 5.00109L3.40408 4.96955C3.46696 4.89479 3.54476 4.83395 3.63251 4.79094C3.72025 4.74794 3.81598 4.72371 3.91357 4.71982C4.01115 4.71593 4.10843 4.73246 4.19915 4.76835C4.28987 4.80424 4.37203 4.8587 4.44036 4.92823C4.56231 5.05252 4.63333 5.21787 4.63954 5.39195C4.64575 5.56602 4.58669 5.73629 4.47393 5.86944Z" fill="white"/>
<path d="M2.61952 10.8706C2.61843 11.0455 2.55179 11.2137 2.43275 11.3422C2.3137 11.4707 2.15088 11.5501 1.97637 11.5648C1.87938 11.5733 1.78173 11.5615 1.68965 11.5301C1.59757 11.4988 1.51309 11.4486 1.44158 11.3828C1.37008 11.317 1.31314 11.237 1.27437 11.1479C1.23561 11.0588 1.21589 10.9626 1.21647 10.8654L1.21885 10.7994C1.21966 10.7025 1.24061 10.6069 1.28036 10.5184C1.32011 10.43 1.37781 10.3507 1.44978 10.2856C1.52176 10.2205 1.60646 10.1711 1.6985 10.1403C1.79055 10.1096 1.88794 10.0983 1.9845 10.1071C2.15736 10.1232 2.31794 10.2029 2.43507 10.3306C2.5522 10.4584 2.61754 10.6252 2.61841 10.7986L2.61952 10.8706Z" fill="white"/>
<path d="M3.08595 8.22843C3.02573 8.39289 2.90602 8.52898 2.75045 8.60983C2.59488 8.69068 2.41475 8.71043 2.24559 8.66517C2.15117 8.64016 2.06307 8.59568 1.98696 8.53459C1.91086 8.47349 1.84844 8.39713 1.80372 8.31043C1.75899 8.22372 1.73296 8.12859 1.72728 8.03114C1.72161 7.9337 1.73642 7.8361 1.77077 7.74463L1.79228 7.68377C1.82611 7.59286 1.87847 7.50991 1.94605 7.4402C2.01362 7.37049 2.09493 7.31554 2.18482 7.27882C2.27471 7.2421 2.37122 7.22442 2.46822 7.2269C2.56523 7.22939 2.66062 7.25198 2.74833 7.29324C2.907 7.3674 3.03193 7.49835 3.09842 7.66023C3.16491 7.82212 3.16814 8.00315 3.10746 8.16757L3.08595 8.22843Z" fill="white"/>
<path d="M8.15594 18.9187C8.20132 18.7496 8.30849 18.6035 8.4563 18.5092C8.6041 18.4149 8.78181 18.3792 8.95435 18.4093L9.0213 18.4272C9.19226 18.4575 9.34569 18.5503 9.45178 18.6874C9.55788 18.8246 9.60908 18.9963 9.59544 19.1693C9.58731 19.2659 9.55918 19.3598 9.51283 19.445C9.46648 19.5303 9.40291 19.605 9.32617 19.6645C9.24942 19.724 9.16118 19.7669 9.06702 19.7906C8.97286 19.8143 8.87485 19.8181 8.7792 19.802L8.70967 19.7937C8.61344 19.777 8.5218 19.7404 8.44065 19.6862C8.35951 19.6321 8.29065 19.5615 8.2385 19.4791C8.18635 19.3967 8.15206 19.3043 8.13784 19.2078C8.12362 19.1112 8.12979 19.0128 8.15594 18.9187Z" fill="white"/>
<path d="M15.5143 18.3034C15.4346 18.3619 15.3434 18.403 15.2467 18.4239C15.1501 18.4447 15.0502 18.445 14.9535 18.4245C14.8569 18.4041 14.7657 18.3634 14.686 18.3052C14.6063 18.2471 14.5398 18.1726 14.491 18.0869C14.4033 17.9367 14.3749 17.7592 14.4112 17.5889C14.4476 17.4187 14.5462 17.2679 14.6877 17.1661C16.2375 16.0856 17.3372 14.4751 17.7782 12.6406C18.2191 10.806 17.9706 8.87513 17.0797 7.21447C16.1888 5.55381 14.7176 4.27903 12.9455 3.63218C11.1733 2.98533 9.22364 3.01144 7.46657 3.70557L8.87171 4.33116C9.03968 4.40786 9.17034 4.54783 9.2352 4.72056C9.30007 4.8933 9.29387 5.08479 9.21797 5.25328C9.14081 5.42121 9.00037 5.55201 8.82728 5.61717C8.65418 5.68233 8.46246 5.67656 8.29392 5.60112L6.1153 4.63102C5.93739 4.54959 5.77772 4.43329 5.64577 4.28901C5.51382 4.14473 5.41226 3.9754 5.3471 3.79106C5.2849 3.60589 5.25998 3.41018 5.27379 3.21519C5.28759 3.0202 5.33985 2.82978 5.42755 2.65487L6.52635 0.535191C6.61138 0.368347 6.75922 0.24193 6.93735 0.183748C7.11547 0.125566 7.30929 0.140387 7.47615 0.22495C7.64302 0.309512 7.76928 0.45689 7.82714 0.634661C7.88501 0.812432 7.86974 1.00603 7.78471 1.17288L7.21775 2.30743C9.29509 1.55458 11.5739 1.58079 13.63 2.38119C15.686 3.1816 17.379 4.70164 18.3939 6.65827C19.4087 8.6149 19.6761 10.8748 19.1464 13.0171C18.6167 15.1594 17.3258 17.0381 15.5143 18.3034Z" fill="white"/>
</g>
<defs>
<clipPath id="clip0_3_1030">
<rect width="20" height="20" fill="white"/>
</clipPath>
</defs>
</svg>
