<svg width="12" height="14" viewBox="0 0 12 14" fill="none" xmlns="http://www.w3.org/2000/svg">
<path d="M5.90925 6.74387C6.86109 6.74387 7.68521 6.41158 8.35876 5.75597C9.0321 5.10046 9.37359 4.29842 9.37359 3.37183C9.37359 2.44556 9.03221 1.6434 8.35865 0.987686C7.6851 0.332291 6.86098 0 5.90925 0C4.95729 0 4.13329 0.332291 3.45985 0.987793C2.7864 1.6433 2.4449 2.44545 2.4449 3.37183C2.4449 4.29842 2.7864 5.10057 3.45985 5.75607C4.13351 6.41147 4.95762 6.74387 5.90925 6.74387ZM4.05593 1.56789C4.57267 1.06491 5.17885 0.820419 5.90925 0.820419C6.63954 0.820419 7.24583 1.06491 7.76268 1.56789C8.27942 2.07097 8.53072 2.6611 8.53072 3.37183C8.53072 4.08276 8.27942 4.67279 7.76268 5.17587C7.24583 5.67896 6.63954 5.92345 5.90925 5.92345C5.17907 5.92345 4.57289 5.67885 4.05593 5.17587C3.53907 4.6729 3.28778 4.08276 3.28778 3.37183C3.28778 2.6611 3.53907 2.07097 4.05593 1.56789Z" fill="#CFD8E1"/>
<path d="M11.9709 10.7653C11.9515 10.4925 11.9122 10.1949 11.8544 9.88071C11.796 9.56412 11.7208 9.26483 11.6308 8.99129C11.5378 8.70856 11.4115 8.42935 11.2551 8.16179C11.093 7.88408 10.9025 7.64226 10.6888 7.44327C10.4652 7.23509 10.1916 7.06772 9.87508 6.94563C9.5597 6.82419 9.2102 6.76266 8.83633 6.76266C8.6895 6.76266 8.54751 6.8213 8.27328 6.99509C8.1045 7.10222 7.90709 7.22612 7.68674 7.36316C7.49833 7.48001 7.24308 7.58949 6.92781 7.68861C6.62022 7.78549 6.30792 7.83463 5.99956 7.83463C5.69142 7.83463 5.37912 7.78549 5.07131 7.68861C4.75637 7.5896 4.50101 7.48012 4.31293 7.36327C4.09467 7.22751 3.89714 7.10361 3.72584 6.99498C3.45184 6.8212 3.30984 6.76256 3.16301 6.76256C2.78903 6.76256 2.43964 6.82419 2.12437 6.94574C1.80811 7.06761 1.53432 7.23499 1.31057 7.44337C1.0968 7.64247 0.906304 7.88419 0.744335 8.16179C0.588181 8.42935 0.461766 8.70845 0.368711 8.99139C0.278838 9.26494 0.203669 9.56412 0.14529 9.88071C0.0873493 10.1945 0.0481738 10.4922 0.0287507 10.7656C0.00965671 11.033 0 11.3112 0 11.5924C0 12.3232 0.238674 12.9148 0.709329 13.3511C1.17417 13.7817 1.78913 14 2.53719 14H9.46281C10.2107 14 10.8256 13.7817 11.2906 13.3511C11.7613 12.9151 12 12.3233 12 11.5923C11.9999 11.3102 11.9901 11.0319 11.9709 10.7653ZM10.7094 12.7567C10.4023 13.0413 9.99448 13.1796 9.4627 13.1796H2.53719C2.0053 13.1796 1.59753 13.0413 1.29049 12.7568C0.989264 12.4777 0.842877 12.0967 0.842877 11.5924C0.842877 11.33 0.851766 11.071 0.869543 10.8224C0.886881 10.5784 0.922326 10.3104 0.974889 10.0257C1.02679 9.74442 1.09285 9.48048 1.17142 9.24155C1.24681 9.01244 1.34964 8.78557 1.47715 8.56703C1.59884 8.35875 1.73887 8.18005 1.89337 8.03607C2.0379 7.90138 2.22006 7.79115 2.4347 7.70848C2.63321 7.632 2.8563 7.59013 3.09849 7.58383C3.12801 7.59911 3.18057 7.62827 3.26572 7.68231C3.439 7.79222 3.63871 7.91762 3.8595 8.05487C4.10838 8.20932 4.42903 8.34882 4.81211 8.46919C5.20376 8.59245 5.6032 8.65504 5.99967 8.65504C6.39614 8.65504 6.79569 8.59245 7.18712 8.4693C7.57053 8.34871 7.89107 8.20932 8.14028 8.05466C8.36622 7.91409 8.56034 7.79233 8.73362 7.68231C8.81877 7.62837 8.87134 7.59911 8.90085 7.58383C9.14315 7.59013 9.36624 7.632 9.56486 7.70848C9.7794 7.79115 9.96156 7.90149 10.1061 8.03607C10.2606 8.17995 10.4006 8.35864 10.5223 8.56714C10.6499 8.78557 10.7529 9.01254 10.8281 9.24144C10.9068 9.4807 10.973 9.74452 11.0248 10.0255C11.0772 10.3108 11.1128 10.5789 11.1301 10.8225V10.8227C11.148 11.0704 11.157 11.3293 11.1571 11.5924C11.157 12.0968 11.0106 12.4777 10.7094 12.7567Z" fill="#CFD8E1"/>
</svg>
