<svg width="22" height="25" viewBox="0 0 22 25" fill="none" xmlns="http://www.w3.org/2000/svg">
<path d="M10.8458 11.5742C12.461 11.5742 13.8597 11.0219 15.0025 9.93204C16.1454 8.84238 16.7247 7.50912 16.7247 5.96883C16.7247 4.42907 16.1454 3.09563 15.0024 2.00562C13.8594 0.916143 12.4609 0.36377 10.8458 0.36377C9.23036 0.36377 7.83205 0.916143 6.68924 2.0058C5.54642 3.09546 4.96691 4.42889 4.96691 5.96883C4.96691 7.50912 5.54642 8.84256 6.68942 9.93221C7.83243 11.0217 9.23092 11.5742 10.8458 11.5742Z" fill="#CFD8E1"/>
<path d="M21.1326 19.2576C21.0997 18.8042 21.033 18.3095 20.9349 17.7871C20.8358 17.2608 20.7083 16.7633 20.5556 16.3086C20.3978 15.8386 20.1833 15.3745 19.9181 14.9297C19.6429 14.4681 19.3196 14.0661 18.9569 13.7353C18.5776 13.3893 18.1131 13.111 17.5761 12.9081C17.0409 12.7062 16.4478 12.6039 15.8133 12.6039C15.5642 12.6039 15.3232 12.7014 14.8579 12.9903C14.5715 13.1684 14.2365 13.3743 13.8625 13.6021C13.5428 13.7964 13.1096 13.9784 12.5746 14.1432C12.0527 14.3042 11.5227 14.3859 10.9996 14.3859C10.4765 14.3859 9.94674 14.3042 9.42422 14.1432C8.88977 13.9786 8.45663 13.7966 8.13727 13.6023C7.76688 13.3767 7.43169 13.1707 7.141 12.9901C6.67621 12.7012 6.43505 12.6038 6.18589 12.6038C5.55126 12.6038 4.95835 12.7062 4.42335 12.9083C3.88667 13.1109 3.42205 13.3891 3.04236 13.7355C2.67979 14.0665 2.35633 14.4683 2.08147 14.9297C1.81649 15.3745 1.60196 15.8385 1.44405 16.3088C1.29154 16.7635 1.16398 17.2608 1.06491 17.7871C0.966775 18.3088 0.900109 18.8036 0.867148 19.2582C0.834747 19.7035 0.818359 20.1656 0.818359 20.6324C0.818359 21.8473 1.22338 22.8308 2.02207 23.5561C2.81089 24.2718 3.85464 24.6349 5.1239 24.6349H16.8765C18.1457 24.6349 19.1891 24.272 19.9781 23.5561C20.777 22.8313 21.182 21.8476 21.182 20.6323C21.1818 20.1633 21.1652 19.7008 21.1326 19.2576Z" fill="#CFD8E1"/>
</svg>
