<svg width="50" height="50" viewBox="0 0 50 50" fill="none" xmlns="http://www.w3.org/2000/svg">
<g clip-path="url(#clip0_10_126)">
<path d="M4.16659 42.0833C4.62682 42.0833 4.99992 41.7102 4.99992 41.25C4.99992 40.7897 4.62682 40.4166 4.16659 40.4166C3.70635 40.4166 3.33325 40.7897 3.33325 41.25C3.33325 41.7102 3.70635 42.0833 4.16659 42.0833Z" fill="#246BFE"/>
<path d="M7.50008 42.0833C7.96032 42.0833 8.33342 41.7102 8.33342 41.25C8.33342 40.7897 7.96032 40.4166 7.50008 40.4166C7.03984 40.4166 6.66675 40.7897 6.66675 41.25C6.66675 41.7102 7.03984 42.0833 7.50008 42.0833Z" fill="#246BFE"/>
<path fill-rule="evenodd" clip-rule="evenodd" d="M12.5 40.4166H10.8333C10.3731 40.4166 10 40.7897 10 41.25C10 41.7102 10.3731 42.0833 10.8333 42.0833H12.5C12.9602 42.0833 13.3333 41.7102 13.3333 41.25C13.3333 40.7897 12.9602 40.4166 12.5 40.4166Z" fill="#246BFE"/>
<path d="M48.3333 37.2366V7.91659C48.3333 6.07564 46.841 4.58325 45 4.58325H5C3.15905 4.58325 1.66667 6.07564 1.66667 7.91659V37.2366C0.671374 37.5885 0.00437616 38.5276 0 39.5833V40.4166C0.00275615 43.1769 2.23972 45.4138 5 45.4166H45C47.7603 45.4138 49.9972 43.1769 50 40.4166V39.5833C49.9956 38.5276 49.3286 37.5885 48.3333 37.2366ZM3.33333 7.91659C3.33333 6.99611 4.07953 6.24992 5 6.24992H45C45.9205 6.24992 46.6667 6.99611 46.6667 7.91659V37.0833H3.33333V7.91659ZM33.8217 38.7499L32.6433 39.9283C32.3313 40.2421 31.9067 40.4179 31.4642 40.4166H18.5358C18.0933 40.4179 17.6687 40.2421 17.3567 39.9283L16.1783 38.7499H33.8217ZM48.3333 40.4166C48.3333 42.2575 46.841 43.7499 45 43.7499H5C3.15905 43.7499 1.66667 42.2575 1.66667 40.4166V39.5833C1.66667 39.123 2.03976 38.7499 2.5 38.7499H13.8217L16.1783 41.1066C16.802 41.7341 17.651 42.0859 18.5358 42.0833H31.4642C32.3489 42.0859 33.198 41.7341 33.8217 41.1066L36.1783 38.7499H47.5C47.9602 38.7499 48.3333 39.123 48.3333 39.5833V40.4166Z" fill="#246BFE"/>
<path fill-rule="evenodd" clip-rule="evenodd" d="M21.8099 19.1983C20.7367 20.2095 19.0496 20.1686 18.0266 19.1066C17.7163 18.7706 17.1931 18.7475 16.8544 19.0549C16.5157 19.3622 16.488 19.8852 16.7924 20.2266C17.2831 20.7645 17.9025 21.1688 18.5924 21.4016C18.4279 21.6474 18.1966 21.8411 17.9258 21.9599C17.6495 22.0753 17.4563 22.33 17.4197 22.6271C17.3832 22.9242 17.5088 23.2182 17.7488 23.3971C17.9889 23.576 18.3065 23.6124 18.5808 23.4924C19.411 23.1357 20.0529 22.4461 20.3491 21.5924C21.3454 21.5117 22.2809 21.081 22.9899 20.3766C23.3058 20.0496 23.3012 19.5299 22.9798 19.2084C22.6583 18.887 22.1386 18.8824 21.8116 19.1983H21.8099Z" fill="#246BFE"/>
<path fill-rule="evenodd" clip-rule="evenodd" d="M22.5 23.7499C22.3361 23.7499 22.1722 23.7588 22.0092 23.7765C20.6674 23.8849 19.5125 24.7671 19.055 26.0332C18.5969 27.3466 18.9362 28.8065 19.9267 29.7832C20.318 30.1716 20.5405 30.6986 20.5459 31.2499C20.5459 31.7101 20.919 32.0832 21.3792 32.0832C21.8394 32.0832 22.2125 31.7101 22.2125 31.2499C22.2081 30.2619 21.814 29.3156 21.1159 28.6165C20.5758 28.0939 20.3844 27.3072 20.6242 26.5949C20.8688 25.9315 21.4826 25.4756 22.1884 25.4332C22.2919 25.4221 22.3959 25.4166 22.5 25.4165C22.9603 25.4165 23.3334 25.0434 23.3334 24.5832C23.3334 24.123 22.9603 23.7499 22.5 23.7499Z" fill="#246BFE"/>
<path fill-rule="evenodd" clip-rule="evenodd" d="M27.6766 23.7774C27.5133 23.7596 27.3492 23.7507 27.1849 23.7507C26.7247 23.7507 26.3516 24.1238 26.3516 24.5841C26.3516 25.0443 26.7247 25.4174 27.1849 25.4174C27.2893 25.4175 27.3936 25.423 27.4974 25.4341C28.2029 25.4768 28.8163 25.9326 29.0607 26.5957C29.3007 27.308 29.1094 28.0949 28.5691 28.6174C27.8711 29.3162 27.477 30.2622 27.4724 31.2499C27.4724 31.7101 27.8455 32.0832 28.3057 32.0832C28.766 32.0832 29.1391 31.7101 29.1391 31.2499C29.1444 30.6986 29.3669 30.1716 29.7582 29.7832C30.7491 28.8067 31.0885 27.3466 30.6299 26.0332C30.1725 24.7676 29.018 23.8857 27.6766 23.7774Z" fill="#246BFE"/>
<path fill-rule="evenodd" clip-rule="evenodd" d="M27.0116 20.3766C27.7206 21.081 28.6562 21.5117 29.6524 21.5924C29.9486 22.4461 30.5905 23.1357 31.4207 23.4924C31.695 23.6124 32.0126 23.576 32.2527 23.3971C32.4927 23.2182 32.6183 22.9242 32.5818 22.6271C32.5452 22.33 32.352 22.0753 32.0757 21.9599C31.8049 21.8411 31.5736 21.6474 31.4091 21.4016C32.099 21.1688 32.7184 20.7645 33.2091 20.2266C33.5135 19.8852 33.4859 19.3622 33.1471 19.0549C32.8084 18.7475 32.2852 18.7706 31.9749 19.1066C30.9519 20.1686 29.2648 20.2095 28.1916 19.1983C27.8646 18.8824 27.3448 18.887 27.0234 19.2084C26.7019 19.5299 26.6974 20.0496 27.0132 20.3766H27.0116Z" fill="#246BFE"/>
<path d="M10.8334 30.5699V29.5833H14.6243C14.644 31.431 16.0052 32.9898 17.8334 33.2583C18.5502 34.5208 19.8598 35.3321 21.3094 35.4117C22.759 35.4912 24.1495 34.8281 25.0001 33.6516C25.8507 34.8281 27.2412 35.4912 28.6908 35.4117C30.1404 35.3321 31.45 34.5208 32.1668 33.2583C33.995 32.9898 35.3562 31.431 35.3759 29.5833H39.1668V30.5699C38.0188 30.9758 37.3302 32.1497 37.5361 33.3497C37.742 34.5498 38.7825 35.427 40.0001 35.427C41.2177 35.427 42.2582 34.5498 42.4641 33.3497C42.67 32.1497 41.9814 30.9758 40.8334 30.5699V29.5833C40.8334 28.6628 40.0872 27.9166 39.1668 27.9166H36.5834C37.0104 27.4479 37.3017 26.8717 37.4259 26.2499H40.1551C40.561 27.3979 41.7348 28.0865 42.9349 27.8806C44.1349 27.6747 45.0121 26.6342 45.0121 25.4166C45.0121 24.199 44.1349 23.1585 42.9349 22.9526C41.7348 22.7467 40.561 23.4353 40.1551 24.5833H37.3409C37.2242 24.1722 37.0315 23.7866 36.7726 23.4466C37.7273 22.0311 37.7437 20.1821 36.8143 18.7499H40.1534C40.5593 19.8979 41.7332 20.5865 42.9332 20.3806C44.1333 20.1747 45.0105 19.1342 45.0105 17.9166C45.0105 16.699 44.1333 15.6585 42.9332 15.4526C41.7332 15.2467 40.5593 15.9353 40.1534 17.0833H36.3859C36.3109 16.489 36.1027 15.9192 35.7768 15.4166H39.1668C40.0872 15.4166 40.8334 14.6704 40.8334 13.7499V12.7633C41.9814 12.3574 42.67 11.1836 42.4641 9.9835C42.2582 8.78344 41.2177 7.90625 40.0001 7.90625C38.7825 7.90625 37.742 8.78344 37.5361 9.9835C37.3302 11.1836 38.0188 12.3574 39.1668 12.7633V13.7499H33.7159C34.0425 12.2377 33.2285 10.7109 31.7909 10.1391C29.0218 8.12494 26.9926 7.48661 25.5943 8.19411C25.3737 8.30864 25.173 8.45807 25.0001 8.63661C24.8272 8.45807 24.6265 8.30864 24.4059 8.19411C23.0068 7.48577 20.9759 8.12577 18.2034 10.1433C16.7686 10.7153 15.9571 12.2403 16.2843 13.7499H10.8334V12.7633C11.9814 12.3574 12.67 11.1836 12.4641 9.9835C12.2582 8.78344 11.2177 7.90625 10.0001 7.90625C8.78251 7.90625 7.742 8.78344 7.53611 9.9835C7.33021 11.1836 8.01881 12.3574 9.16677 12.7633V13.7499C9.16677 14.6704 9.91296 15.4166 10.8334 15.4166H14.2234C13.8975 15.9192 13.6893 16.489 13.6143 17.0833H9.84677C9.44091 15.9353 8.26705 15.2467 7.06699 15.4526C5.86694 15.6585 4.98975 16.699 4.98975 17.9166C4.98975 19.1342 5.86694 20.1747 7.06699 20.3806C8.26705 20.5865 9.44091 19.8979 9.84677 18.7499H13.1859C12.2552 20.1818 12.2719 22.0318 13.2284 23.4466C12.9694 23.7866 12.7763 24.1722 12.6593 24.5833H9.84677C9.44091 23.4353 8.26705 22.7467 7.06699 22.9526C5.86694 23.1585 4.98975 24.199 4.98975 25.4166C4.98975 26.6342 5.86694 27.6747 7.06699 27.8806C8.26705 28.0865 9.44091 27.3979 9.84677 26.2499H12.5759C12.6997 26.8715 12.9904 27.4477 13.4168 27.9166H10.8334C9.91296 27.9166 9.16677 28.6628 9.16677 29.5833V30.5699C8.01881 30.9758 7.33021 32.1497 7.53611 33.3497C7.742 34.5498 8.78251 35.427 10.0001 35.427C11.2177 35.427 12.2582 34.5498 12.4641 33.3497C12.67 32.1497 11.9814 30.9758 10.8334 30.5699ZM40.0001 33.7499C39.5399 33.7499 39.1668 33.3768 39.1668 32.9166C39.1668 32.4564 39.5399 32.0833 40.0001 32.0833C40.4603 32.0833 40.8334 32.4564 40.8334 32.9166C40.8334 33.3768 40.4603 33.7499 40.0001 33.7499ZM40.0001 9.58327C40.4603 9.58327 40.8334 9.95637 40.8334 10.4166C40.8334 10.8768 40.4603 11.2499 40.0001 11.2499C39.5399 11.2499 39.1668 10.8768 39.1668 10.4166C39.1668 9.95637 39.5399 9.58327 40.0001 9.58327ZM10.0001 9.58327C10.4603 9.58327 10.8334 9.95637 10.8334 10.4166C10.8334 10.8768 10.4603 11.2499 10.0001 11.2499C9.53987 11.2499 9.16677 10.8768 9.16677 10.4166C9.16677 9.95637 9.53987 9.58327 10.0001 9.58327ZM42.5001 24.5833C42.9603 24.5833 43.3334 24.9564 43.3334 25.4166C43.3334 25.8768 42.9603 26.2499 42.5001 26.2499C42.0399 26.2499 41.6668 25.8768 41.6668 25.4166C41.6668 24.9564 42.0399 24.5833 42.5001 24.5833ZM42.5001 17.0833C42.9603 17.0833 43.3334 17.4564 43.3334 17.9166C43.3334 18.3768 42.9603 18.7499 42.5001 18.7499C42.0399 18.7499 41.6668 18.3768 41.6668 17.9166C41.6668 17.4564 42.0399 17.0833 42.5001 17.0833ZM26.3534 9.67744C26.5651 9.57161 27.2868 9.39161 28.9859 10.3133C28.3946 10.6434 27.9232 11.1525 27.6393 11.7674C27.4619 12.183 27.648 12.6643 28.0589 12.8523C28.4698 13.0404 28.9557 12.8667 29.1543 12.4608C29.4989 11.7346 30.3352 11.3847 31.0943 11.6491C31.4839 11.7835 31.8025 12.07 31.9772 12.4432C32.152 12.8165 32.1681 13.2446 32.0218 13.6299C30.5576 13.7726 29.2899 14.7075 28.7209 16.0641C28.5495 16.487 28.7499 16.9691 29.1707 17.1457C29.5914 17.3223 30.0759 17.1277 30.2576 16.7091C30.6891 15.6767 31.7891 15.0922 32.8862 15.3123C33.9833 15.5324 34.7727 16.496 34.7726 17.6149C34.7732 17.8288 34.7451 18.0418 34.6893 18.2483C34.624 18.5558 34.7202 18.8753 34.9443 19.0958C35.7662 19.8122 36.0569 20.9636 35.6737 21.9844C35.2905 23.0051 34.3138 23.6806 33.2234 23.6791C32.7632 23.6791 32.3901 24.0522 32.3901 24.5124C32.3901 24.9727 32.7632 25.3458 33.2234 25.3458C34.0574 25.3468 34.8732 25.1025 35.5693 24.6433C35.74 24.9224 35.8313 25.2428 35.8334 25.5699C35.8307 26.5181 35.1004 27.3053 34.1551 27.3791C33.8741 27.4 33.6228 27.5615 33.4869 27.8083C33.3511 28.0551 33.3491 28.3539 33.4818 28.6024C33.6346 28.8936 33.7139 29.2178 33.7126 29.5466C33.7126 30.0991 33.4931 30.629 33.1024 31.0197C32.7117 31.4104 32.1818 31.6299 31.6293 31.6299C31.293 31.6299 30.9896 31.832 30.8601 32.1424C30.3804 33.2919 29.1564 33.9432 27.9351 33.699C26.7138 33.4549 25.8343 32.3829 25.8334 31.1374V18.6758C25.8339 18.2575 26.1726 17.9184 26.5909 17.9174C27.0512 17.9174 27.4243 17.5443 27.4243 17.0841C27.4243 16.6239 27.0512 16.2508 26.5909 16.2508C26.3329 16.2543 26.0772 16.2993 25.8334 16.3841V10.7283C25.8334 10.7199 25.8609 9.92161 26.3534 9.67744ZM23.6468 9.67744C24.1393 9.92161 24.1668 10.7199 24.1668 10.7208V13.7333C23.9232 13.6481 23.6673 13.6031 23.4093 13.5999C22.949 13.5999 22.5759 13.973 22.5759 14.4333C22.5759 14.8935 22.949 15.2666 23.4093 15.2666C23.8274 15.2671 24.1663 15.6059 24.1668 16.0241V31.1374C24.1659 32.3829 23.2864 33.4549 22.0651 33.699C20.8438 33.9432 19.6198 33.2919 19.1401 32.1424C19.0106 31.832 18.7073 31.6299 18.3709 31.6299C17.2203 31.6299 16.2876 30.6972 16.2876 29.5466C16.2863 29.2178 16.3656 28.8936 16.5184 28.6024C16.6511 28.3539 16.6491 28.0551 16.5133 27.8083C16.3774 27.5615 16.1261 27.4 15.8451 27.3791C14.8998 27.3053 14.1695 26.5181 14.1668 25.5699C14.1691 25.2416 14.2617 24.9201 14.4343 24.6408C15.1306 25.0993 15.9463 25.3433 16.7801 25.3424C17.2403 25.3424 17.6134 24.9693 17.6134 24.5091C17.6134 24.0489 17.2403 23.6758 16.7801 23.6758C15.6898 23.6773 14.7131 23.0018 14.3298 21.981C13.9466 20.9603 14.2374 19.8089 15.0593 19.0924C15.2852 18.8731 15.3816 18.5525 15.3143 18.2449C15.2584 18.0385 15.2304 17.8255 15.2309 17.6116C15.2309 16.4927 16.0203 15.5291 17.1173 15.309C18.2144 15.0889 19.3144 15.6734 19.7459 16.7058C19.8587 16.9839 20.1124 17.1799 20.41 17.2189C20.7075 17.2578 21.0031 17.1338 21.1837 16.8941C21.3643 16.6544 21.4021 16.3361 21.2826 16.0608C20.7137 14.7041 19.446 13.7693 17.9818 13.6266C17.8341 13.2381 17.8516 12.8061 18.0302 12.4309C18.2088 12.0556 18.533 11.7696 18.9276 11.6391C19.0901 11.5793 19.262 11.5494 19.4351 11.5508C20.0438 11.5505 20.597 11.9046 20.8518 12.4574C21.0503 12.8634 21.5362 13.0371 21.9471 12.849C22.358 12.661 22.5442 12.1797 22.3668 11.7641C22.0829 11.1492 21.6114 10.6401 21.0201 10.3099C22.7143 9.39161 23.4343 9.57327 23.6468 9.67744ZM7.5001 18.7499C7.03987 18.7499 6.66677 18.3768 6.66677 17.9166C6.66677 17.4564 7.03987 17.0833 7.5001 17.0833C7.96034 17.0833 8.33344 17.4564 8.33344 17.9166C8.33344 18.3768 7.96034 18.7499 7.5001 18.7499ZM7.5001 26.2499C7.03987 26.2499 6.66677 25.8768 6.66677 25.4166C6.66677 24.9564 7.03987 24.5833 7.5001 24.5833C7.96034 24.5833 8.33344 24.9564 8.33344 25.4166C8.33344 25.8768 7.96034 26.2499 7.5001 26.2499ZM10.0001 33.7499C9.53987 33.7499 9.16677 33.3768 9.16677 32.9166C9.16677 32.4564 9.53987 32.0833 10.0001 32.0833C10.4603 32.0833 10.8334 32.4564 10.8334 32.9166C10.8334 33.3768 10.4603 33.7499 10.0001 33.7499Z" fill="#246BFE"/>
</g>
<defs>
<clipPath id="clip0_10_126">
<rect width="50" height="50" fill="white"/>
</clipPath>
</defs>
</svg>
