<svg width="18" height="18" viewBox="0 0 18 18" fill="none" xmlns="http://www.w3.org/2000/svg">
<path d="M5.4375 5.46872H9.78121V1C8.23813 1 6.41643 1 4.96875 1V4.99997C4.96875 5.25844 5.17903 5.46872 5.4375 5.46872Z" fill="white"/>
<path d="M11.7813 4.99997V1C11.4697 1 11.1106 1 10.7188 1V5.46872H11.3125C11.571 5.46872 11.7813 5.25844 11.7813 4.99997Z" fill="white"/>
<path d="M4.96875 16.9998H11.7812V11.9686H4.96875V16.9998Z" fill="white"/>
<path d="M16.9976 4.95416C16.9889 4.86578 16.9545 4.77707 16.894 4.70332C16.8707 4.67478 17.1094 4.91538 13.3313 1.13731C13.2413 1.04725 13.119 0.999938 12.9997 1C12.9751 1 12.8771 1 12.7186 1V4.99997C12.7186 5.77537 12.0878 6.40621 11.3124 6.40621C10.874 6.40621 5.49794 6.40621 5.43744 6.40621C4.66204 6.40621 4.0312 5.77537 4.0312 4.99997V1C3.10655 1 2.47433 1 2.40621 1C1.63081 1 0.999969 1.63084 0.999969 2.40624V15.5936C0.999969 16.369 1.63081 16.9999 2.40621 16.9999H4.0312C4.0312 16.6619 4.0312 10.6938 4.0312 10.4374C4.0312 9.66203 4.66204 9.03119 5.43744 9.03119H11.3124C12.0878 9.03119 12.7186 9.66203 12.7186 10.4374V16.9999H15.5936C16.369 16.9999 16.9999 16.369 16.9999 15.5936C16.9999 4.21291 17.0011 4.99009 16.9976 4.95416Z" fill="white"/>
<path d="M11.3125 9.96875H5.4375C5.17903 9.96875 4.96875 10.179 4.96875 10.4375V11.0312H11.7812V10.4375C11.7812 10.179 11.5709 9.96875 11.3125 9.96875Z" fill="white"/>
</svg>
