<svg width="11" height="12" viewBox="0 0 11 12" fill="none" xmlns="http://www.w3.org/2000/svg">
<path d="M0.727265 5.60173C0.675029 5.65396 0.633594 5.71597 0.605324 5.78422C0.577054 5.85247 0.562503 5.92562 0.562503 5.99949C0.562503 6.07336 0.577054 6.14651 0.605324 6.21475C0.633594 6.283 0.675029 6.34501 0.727265 6.39725L2.84857 8.51855C2.95406 8.62404 3.09713 8.6833 3.24632 8.6833C3.3955 8.6833 3.53857 8.62404 3.64406 8.51855C3.74955 8.41306 3.80881 8.26999 3.80881 8.1208C3.80881 7.97162 3.74955 7.82855 3.64406 7.72306L2.48299 6.56199L7.625 6.56199C7.77418 6.56199 7.91726 6.50272 8.02275 6.39723C8.12824 6.29175 8.1875 6.14867 8.1875 5.99949C8.1875 5.8503 8.12824 5.70723 8.02275 5.60174C7.91726 5.49625 7.77418 5.43699 7.625 5.43699L2.48299 5.43699L3.64406 4.27592C3.74955 4.17043 3.80881 4.02735 3.80881 3.87817C3.80881 3.72899 3.74955 3.58591 3.64406 3.48042C3.53857 3.37494 3.3955 3.31567 3.24632 3.31567C3.09713 3.31567 2.95406 3.37494 2.84857 3.48043L0.727265 5.60173Z" fill="#CFD8E1"/>
<path d="M6.4375 1.125C6.4375 1.27418 6.49676 1.41726 6.60225 1.52275C6.70774 1.62824 6.85082 1.6875 7 1.6875L9.3125 1.6875L9.3125 10.3125L7 10.3125C6.85082 10.3125 6.70774 10.3718 6.60225 10.4773C6.49676 10.5827 6.4375 10.7258 6.4375 10.875C6.4375 11.0242 6.49676 11.1673 6.60225 11.2727C6.70774 11.3782 6.85082 11.4375 7 11.4375L9.5 11.4375C9.74864 11.4375 9.9871 11.3387 10.1629 11.1629C10.3387 10.9871 10.4375 10.7486 10.4375 10.5L10.4375 1.5C10.4375 1.25136 10.3387 1.0129 10.1629 0.837087C9.9871 0.661272 9.74864 0.5625 9.5 0.5625L7 0.5625C6.85082 0.5625 6.70774 0.621764 6.60225 0.727253C6.49676 0.832742 6.4375 0.975816 6.4375 1.125Z" fill="#CFD8E1"/>
</svg>
