<svg width="20" height="20" viewBox="0 0 20 20" fill="none" xmlns="http://www.w3.org/2000/svg">
<path d="M2.80494 5.7141H17.8578V5.58925C17.8573 5.06666 17.4338 4.64313 16.9112 4.64266H9.43951C8.82336 4.6448 8.25025 4.32694 7.92579 3.80313L6.97954 2.28906C6.78504 1.97475 6.44124 1.78404 6.07166 1.78541H0.653617C0.292823 1.78588 0.00050783 2.07823 0 2.43902V12.932L1.00937 7.1954C1.16715 6.33018 1.9255 5.70457 2.80494 5.7141Z" fill="white"/>
<path d="M19.7517 6.8239C19.5369 6.571 19.2212 6.42619 18.8895 6.42838H2.80494C2.27278 6.41943 1.81167 6.79542 1.71326 7.31845L0.0164068 16.962C0.00558613 17.0229 7.81278e-05 17.0847 0 17.1465V17.2679C0.000468766 17.7905 0.423999 18.214 0.946596 18.2145H17.193C17.726 18.222 18.1877 17.8461 18.2885 17.3227L19.9846 7.68088C20.0375 7.37482 19.9522 7.06106 19.7517 6.8239Z" fill="white"/>
</svg>
