<svg width="50" height="50" viewBox="0 0 50 50" fill="none" xmlns="http://www.w3.org/2000/svg">
<g clip-path="url(#clip0_10_112)">
<path d="M47.4551 22.4951C47.6749 22.4718 47.8764 22.3621 48.0154 22.1902C48.1543 22.0183 48.2192 21.7982 48.1959 21.5784C46.8376 8.9745 35.971 -0.437597 23.3022 0.016751C10.6335 0.471099 0.469042 10.6374 0.0170746 23.3063C-0.434893 35.9751 8.97924 46.8399 21.5834 48.1959C21.8844 48.2371 22.184 48.1112 22.3652 47.8673C22.5464 47.6234 22.5805 47.3003 22.4543 47.024C22.328 46.7476 22.0614 46.5619 21.7584 46.5392C10.0246 45.2748 1.26177 35.1591 1.68345 23.3648C2.10512 11.5706 11.568 2.10649 23.3621 1.68323C35.1563 1.25997 45.2732 10.0214 46.5392 21.7551C46.5882 22.2121 46.998 22.5432 47.4551 22.4951Z" fill="#246BFE"/>
<path d="M38.6001 15.8334C38.7107 16.0251 38.8928 16.1649 39.1065 16.2221C39.3202 16.2793 39.5478 16.2492 39.7393 16.1384L41.156 15.3193C41.8319 16.6071 42.3587 17.9678 42.726 19.3751C42.8488 19.8113 43.2977 20.0693 43.7365 19.956C44.1752 19.8427 44.443 19.3996 44.3393 18.9584C41.983 9.80752 33.7628 3.38854 24.3136 3.32073C14.8644 3.25293 6.55296 9.55328 4.06553 18.6694C1.5781 27.7856 5.53772 37.4342 13.7118 42.1751C14.606 42.7684 18.2426 44.3676 19.1676 44.3676C19.5881 44.3684 19.9433 44.0559 19.996 43.6388C20.0488 43.2217 19.7825 42.8306 19.3751 42.7268C17.9679 42.3596 16.6072 41.8332 15.3193 41.1576L16.1385 39.7409C16.2897 39.483 16.2911 39.1637 16.1422 38.9044C15.9932 38.6451 15.7168 38.4855 15.4177 38.4862C15.1187 38.4868 14.8429 38.6476 14.6951 38.9076L13.8751 40.3243C11.5142 38.8207 9.51092 36.8185 8.00597 34.4584L9.42764 33.6368C9.6876 33.489 9.84843 33.2132 9.84909 32.9142C9.84975 32.6151 9.69013 32.3387 9.43082 32.1897C9.17151 32.0408 8.85228 32.0422 8.59431 32.1934L7.17764 33.0134C5.88567 30.5313 5.15429 27.7958 5.03514 25.0001H6.66681C7.12704 25.0001 7.50014 24.627 7.50014 24.1668C7.50014 23.7065 7.12704 23.3334 6.66681 23.3334H5.02097C5.13982 20.5356 5.87481 17.7986 7.17347 15.3176C8.77014 16.2401 8.72597 16.2501 9.00681 16.2501C9.38396 16.2501 9.71409 15.9968 9.81171 15.6325C9.90932 15.2682 9.75009 14.8837 9.42347 14.6951L8.00681 13.8759C9.51427 11.5185 11.516 9.51674 13.8735 8.00927L14.6926 9.42594C14.8404 9.6859 15.1162 9.84674 15.4152 9.84739C15.7143 9.84805 15.9907 9.68843 16.1397 9.42912C16.2886 9.16982 16.2872 8.85058 16.136 8.59261L15.3151 7.17594C17.7967 5.87606 20.5346 5.1402 23.3335 5.02094V6.66677C23.3335 7.12701 23.7066 7.50011 24.1668 7.50011C24.627 7.50011 25.0001 7.12701 25.0001 6.66677V5.03511C27.7962 5.15298 30.5322 5.88323 33.0151 7.17427L32.1951 8.59094C32.0439 8.84892 32.0425 9.16815 32.1914 9.42746C32.3404 9.68676 32.6168 9.84638 32.9159 9.84573C33.2149 9.84507 33.4907 9.68423 33.6385 9.42427L34.4601 8.00261C36.82 9.50748 38.8221 11.5104 40.326 13.8709L38.9093 14.6918C38.7163 14.8016 38.5751 14.9839 38.5171 15.1982C38.459 15.4126 38.4889 15.6412 38.6001 15.8334Z" fill="#246BFE"/>
<path d="M33.3335 42.5C33.3335 42.9603 33.7066 43.3334 34.1668 43.3334C39.227 43.3274 43.3275 39.2268 43.3335 34.1667C43.3335 33.7065 42.9604 33.3334 42.5002 33.3334C42.0399 33.3334 41.6668 33.7065 41.6668 34.1667C41.6622 38.3069 38.3071 41.6621 34.1668 41.6667C33.7066 41.6667 33.3335 42.0398 33.3335 42.5Z" fill="#246BFE"/>
<path d="M35 25.8335C35 25.3732 34.6269 25.0001 34.1667 25.0001C29.1065 25.0061 25.006 29.1066 25 34.1668C25 34.627 25.3731 35.0001 25.8333 35.0001C26.2936 35.0001 26.6667 34.627 26.6667 34.1668C26.6713 30.0265 30.0264 26.6714 34.1667 26.6668C34.3877 26.6668 34.5996 26.579 34.7559 26.4227C34.9122 26.2664 35 26.0545 35 25.8335Z" fill="#246BFE"/>
<path d="M34.1667 30.0001C31.8655 30.0001 30 31.8656 30 34.1668C30 36.468 31.8655 38.3334 34.1667 38.3334C36.4678 38.3334 38.3333 36.468 38.3333 34.1668C38.3306 31.8667 36.4667 30.0029 34.1667 30.0001ZM34.1667 36.6668C32.786 36.6668 31.6667 35.5475 31.6667 34.1668C31.6667 32.7861 32.786 31.6668 34.1667 31.6668C35.5474 31.6668 36.6667 32.7861 36.6667 34.1668C36.6667 35.5475 35.5474 36.6668 34.1667 36.6668Z" fill="#246BFE"/>
<path d="M47.9882 30.5834L45.9966 30.1842C45.8174 29.6473 45.6005 29.1238 45.3474 28.6175L46.4757 26.9259C47.1324 25.9336 47.0019 24.6166 46.1632 23.7725L44.5616 22.1667C43.7167 21.328 42.3989 21.1982 41.4066 21.8559L39.7249 22.9792C39.2191 22.7153 38.6909 22.4966 38.1466 22.3259L37.7507 20.3425C37.513 19.1767 36.4897 18.3378 35.2999 18.3334H33.0332C31.843 18.3385 30.8199 19.1785 30.5832 20.345L30.1849 22.3375C29.648 22.5163 29.1245 22.733 28.6182 22.9859L26.9266 21.8584C25.9343 21.201 24.6168 21.3312 23.7724 22.17L22.1666 23.7717C21.3275 24.6166 21.1973 25.9348 21.8549 26.9275L22.9824 28.6175C22.7293 29.1238 22.5123 29.6473 22.3332 30.1842L20.3399 30.5834C19.1752 30.8218 18.3375 31.8445 18.3333 33.0334V35.3C18.338 36.4904 19.1782 37.5137 20.3449 37.75L22.3357 38.1484C22.4997 38.6935 22.7149 39.222 22.9782 39.7267L21.8574 41.4075C21.2007 42.3998 21.3313 43.7168 22.1699 44.5609L23.7716 46.1667C24.6165 47.0054 25.9343 47.1352 26.9266 46.4775L28.6174 45.3509C29.1235 45.6042 29.6471 45.8211 30.1841 46L30.5824 47.9942C30.8215 49.1587 31.8445 49.9959 33.0332 50H35.2999C36.4902 49.995 37.5133 49.1549 37.7499 47.9884L38.1482 45.9959C38.6851 45.8171 39.2087 45.6004 39.7149 45.3475L41.4066 46.475C42.3988 47.1324 43.7163 47.0022 44.5607 46.1634L46.1666 44.5617C47.0057 43.7168 47.1358 42.3986 46.4782 41.4059L45.3507 39.7159C45.6039 39.2096 45.8208 38.6861 45.9999 38.1492L47.9932 37.75C49.1579 37.5116 49.9956 36.4889 49.9999 35.3V33.0334C49.9951 31.843 49.1549 30.8197 47.9882 30.5834ZM42.3332 23.25C42.6645 23.0306 43.1042 23.073 43.3874 23.3517L44.9891 24.9542C45.27 25.2357 45.3129 25.6764 45.0916 26.0067L44.4149 27.0217C43.5748 25.8143 42.5268 24.7658 41.3199 23.925L42.3332 23.25ZM39.3866 24.675C44.6305 27.5551 46.5471 34.1407 43.6674 39.3849C40.7877 44.6291 34.2022 46.5461 28.9579 43.6668C23.7135 40.7875 21.796 34.2021 24.6749 28.9575C27.5532 23.7131 34.1375 21.7944 39.3824 24.6717L39.3866 24.675ZM33.0332 20H35.2999C35.6967 20.0027 36.0374 20.2829 36.1166 20.6717L36.3557 21.8684C34.9076 21.615 33.4264 21.615 31.9782 21.8684L32.2166 20.675C32.2944 20.2849 32.6354 20.003 33.0332 20ZM23.3482 24.9509L24.9499 23.3484C25.233 23.0723 25.6705 23.0313 25.9999 23.25L27.0149 23.9267C25.8082 24.7673 24.76 25.8152 23.9191 27.0217L23.2441 26.0092C23.0223 25.6766 23.0659 25.2338 23.3482 24.9509ZM19.9999 35.3V33.0334C20.0008 32.6358 20.2823 32.2943 20.6724 32.2175L21.8657 31.9784C21.6003 33.4252 21.6003 34.9082 21.8657 36.355L20.6741 36.1167C20.2843 36.0385 20.0028 35.6976 19.9999 35.3ZM25.9999 45.0867C25.6688 45.3068 25.2287 45.2644 24.9457 44.985L23.3441 43.3825C23.0676 43.0995 23.0283 42.6611 23.2499 42.3334L23.9257 41.32C24.7667 42.5265 25.8148 43.5744 27.0216 44.415L25.9999 45.0867ZM35.2999 48.3334H33.0332C32.6365 48.3307 32.2958 48.0505 32.2166 47.6617L31.9782 46.4675C33.4251 46.733 34.9081 46.733 36.3549 46.4675L36.1166 47.6592C36.0384 48.049 35.6975 48.3305 35.2999 48.3334ZM44.9849 43.3825L43.3832 44.985C43.1008 45.2638 42.6617 45.3065 42.3307 45.0875L41.3157 44.4109C42.522 43.5697 43.5699 42.5216 44.4107 41.315L45.0866 42.3284C45.3067 42.6595 45.2642 43.0996 44.9849 43.3825ZM48.3332 35.3C48.3324 35.6976 48.0508 36.0392 47.6607 36.1159L46.4674 36.355C46.7328 34.9082 46.7328 33.4252 46.4674 31.9784L47.6591 32.2167C48.0489 32.2949 48.3303 32.6358 48.3332 33.0334V35.3Z" fill="#246BFE"/>
<path d="M24.1666 9.16675C23.7063 9.16675 23.3333 9.53984 23.3333 10.0001V19.1667C23.3333 19.627 23.7063 20.0001 24.1666 20.0001C24.6268 20.0001 24.9999 19.627 24.9999 19.1667V10.0001C24.9999 9.53984 24.6268 9.16675 24.1666 9.16675Z" fill="#246BFE"/>
<path d="M10.0001 23.3334C9.53984 23.3334 9.16675 23.7065 9.16675 24.1667C9.16675 24.6269 9.53984 25 10.0001 25H19.1667C19.627 25 20.0001 24.6269 20.0001 24.1667C20.0001 23.7065 19.627 23.3334 19.1667 23.3334H10.0001Z" fill="#246BFE"/>
</g>
<defs>
<clipPath id="clip0_10_112">
<rect width="50" height="50" fill="white"/>
</clipPath>
</defs>
</svg>
