<svg width="20" height="20" viewBox="0 0 20 20" fill="none" xmlns="http://www.w3.org/2000/svg">
<g clip-path="url(#clip0_3_1052)">
<path d="M14.4834 17.6985C14.3831 17.5568 14.2338 17.4573 14.0644 17.4192C13.895 17.381 13.7176 17.407 13.5666 17.4921L13.5048 17.5291C13.3549 17.6155 13.2424 17.7544 13.1892 17.919C13.1361 18.0836 13.1459 18.2622 13.2169 18.4203C13.2571 18.5094 13.3156 18.5892 13.3885 18.6545C13.4615 18.7198 13.5473 18.7691 13.6404 18.7993C13.7335 18.8295 13.8319 18.8399 13.9292 18.8298C14.0265 18.8197 14.1206 18.7894 14.2053 18.7407L14.2671 18.7037C14.3505 18.6548 14.4227 18.5891 14.4793 18.5108C14.5359 18.4325 14.5756 18.3434 14.5959 18.2489C14.6162 18.1545 14.6167 18.0568 14.5973 17.962C14.578 17.8673 14.5392 17.7776 14.4834 17.6985Z" fill="white"/>
<path d="M15.6006 16.7534C15.6692 16.8228 15.7515 16.8772 15.8422 16.913C15.9329 16.9489 16.0301 16.9654 16.1275 16.9617C16.2249 16.9579 16.3204 16.9338 16.4078 16.891C16.4953 16.8482 16.5728 16.7877 16.6355 16.7132L16.6669 16.6587C16.7294 16.5843 16.7756 16.4978 16.8026 16.4046C16.8297 16.3113 16.837 16.2134 16.8241 16.1171C16.8112 16.0208 16.7783 15.9282 16.7276 15.8452C16.6769 15.7622 16.6095 15.6906 16.5296 15.635C16.3863 15.535 16.2108 15.492 16.0376 15.5145C15.8644 15.5369 15.7061 15.6232 15.5936 15.7565L15.5586 15.817C15.4484 15.9504 15.3916 16.1199 15.3994 16.2929C15.4072 16.4659 15.4789 16.63 15.6006 16.7534Z" fill="white"/>
<path d="M16.9344 13.4384L16.8994 13.4989C16.8409 13.6618 16.8449 13.8407 16.9108 14.001C16.9767 14.1613 17.0998 14.2917 17.2562 14.3668C17.3443 14.4093 17.4404 14.4328 17.5381 14.436C17.6359 14.4391 17.7332 14.4218 17.8237 14.3851C17.9143 14.3484 17.9961 14.2932 18.0639 14.223C18.1317 14.1527 18.184 14.0691 18.2174 13.9774L18.2524 13.9168C18.2856 13.8253 18.2993 13.7279 18.2926 13.6308C18.2859 13.5336 18.259 13.4389 18.2136 13.3526C18.1682 13.2664 18.1052 13.1905 18.0288 13.1299C17.9524 13.0692 17.8642 13.0252 17.7698 13.0005C17.6008 12.9561 17.4213 12.9765 17.2668 13.0575C17.1122 13.1385 16.9936 13.2743 16.9344 13.4384Z" fill="white"/>
<path d="M8.93809 19.1705C8.95306 18.9973 8.90289 18.8246 8.79734 18.6861C8.6918 18.5475 8.53846 18.4531 8.36723 18.4212L8.3126 18.3897C8.13957 18.3579 7.96103 18.3923 7.81248 18.486C7.66393 18.5797 7.55623 18.7258 7.51078 18.8954C7.48573 18.9892 7.48051 19.0872 7.49547 19.1832C7.51043 19.2792 7.54524 19.3711 7.59768 19.453C7.65011 19.5349 7.71903 19.6051 7.80004 19.659C7.88105 19.7129 7.97237 19.7494 8.0682 19.7661L8.12283 19.7977C8.21825 19.8141 8.316 19.8106 8.40992 19.7874C8.50383 19.7642 8.59187 19.7218 8.66847 19.6629C8.74508 19.6039 8.80858 19.5298 8.85499 19.445C8.90139 19.3603 8.92969 19.2668 8.93809 19.1705Z" fill="white"/>
<path d="M15.5261 5.86944L15.5807 5.90098C15.6937 6.0355 15.8531 6.12283 16.0273 6.14565C16.2014 6.16847 16.3777 6.12512 16.5211 6.02419C16.6004 5.96831 16.6671 5.89655 16.7171 5.81346C16.767 5.73037 16.7991 5.63778 16.8113 5.54157C16.8235 5.44535 16.8155 5.34762 16.7878 5.25457C16.7601 5.16152 16.7134 5.0752 16.6505 5.00109L16.5959 4.96955C16.533 4.89479 16.4552 4.83395 16.3675 4.79094C16.2798 4.74794 16.184 4.72371 16.0864 4.71982C15.9888 4.71593 15.8916 4.73246 15.8009 4.76835C15.7101 4.80424 15.628 4.8587 15.5596 4.92823C15.4377 5.05252 15.3667 5.21787 15.3605 5.39195C15.3543 5.56602 15.4133 5.73629 15.5261 5.86944Z" fill="white"/>
<path d="M17.3805 10.8706C17.3816 11.0455 17.4482 11.2137 17.5673 11.3422C17.6863 11.4707 17.8491 11.5501 18.0236 11.5648C18.1206 11.5733 18.2183 11.5615 18.3103 11.5301C18.4024 11.4988 18.4869 11.4486 18.5584 11.3828C18.6299 11.317 18.6869 11.237 18.7256 11.1479C18.7644 11.0588 18.7841 10.9626 18.7835 10.8654L18.7811 10.7994C18.7803 10.7025 18.7594 10.6069 18.7196 10.5184C18.6799 10.43 18.6222 10.3507 18.5502 10.2856C18.4782 10.2205 18.3935 10.1711 18.3015 10.1403C18.2095 10.1096 18.1121 10.0983 18.0155 10.1071C17.8426 10.1232 17.6821 10.2029 17.5649 10.3306C17.4478 10.4584 17.3825 10.6252 17.3816 10.7986L17.3805 10.8706Z" fill="white"/>
<path d="M16.9141 8.22843C16.9743 8.39289 17.094 8.52898 17.2495 8.60983C17.4051 8.69068 17.5852 8.71043 17.7544 8.66517C17.8488 8.64016 17.9369 8.59568 18.013 8.53459C18.0891 8.47349 18.1516 8.39713 18.1963 8.31043C18.241 8.22372 18.267 8.12859 18.2727 8.03114C18.2784 7.9337 18.2636 7.8361 18.2292 7.74463L18.2077 7.68377C18.1739 7.59286 18.1215 7.50991 18.054 7.4402C17.9864 7.37049 17.9051 7.31554 17.8152 7.27882C17.7253 7.2421 17.6288 7.22442 17.5318 7.2269C17.4348 7.22939 17.3394 7.25198 17.2517 7.29324C17.093 7.3674 16.9681 7.49835 16.9016 7.66023C16.8351 7.82212 16.8319 8.00315 16.8925 8.16757L16.9141 8.22843Z" fill="white"/>
<path d="M11.8441 18.9187C11.7987 18.7496 11.6915 18.6035 11.5437 18.5092C11.3959 18.4149 11.2182 18.3792 11.0457 18.4093L10.9787 18.4272C10.8077 18.4575 10.6543 18.5503 10.5482 18.6874C10.4421 18.8246 10.3909 18.9963 10.4046 19.1693C10.4127 19.2659 10.4408 19.3598 10.4872 19.445C10.5335 19.5303 10.5971 19.605 10.6738 19.6645C10.7506 19.724 10.8388 19.7669 10.933 19.7906C11.0271 19.8143 11.1252 19.8181 11.2208 19.802L11.2903 19.7937C11.3866 19.777 11.4782 19.7404 11.5593 19.6862C11.6405 19.6321 11.7094 19.5615 11.7615 19.4791C11.8137 19.3967 11.8479 19.3043 11.8622 19.2078C11.8764 19.1112 11.8702 19.0128 11.8441 18.9187Z" fill="white"/>
<path d="M4.48574 18.3034C4.56544 18.3619 4.65661 18.403 4.75326 18.4239C4.84991 18.4447 4.94984 18.445 5.04649 18.4245C5.14314 18.4041 5.23431 18.3634 5.31403 18.3052C5.39374 18.2471 5.46018 18.1726 5.50899 18.0869C5.5967 17.9367 5.62514 17.7592 5.58877 17.5889C5.55239 17.4187 5.45381 17.2679 5.31227 17.1661C3.76251 16.0856 2.66276 14.4751 2.22181 12.6406C1.78087 10.806 2.02945 8.87513 2.92034 7.21447C3.81123 5.55381 5.28241 4.27903 7.05454 3.63218C8.82667 2.98533 10.7764 3.01144 12.5334 3.70557L11.1283 4.33116C10.9603 4.40786 10.8297 4.54783 10.7648 4.72056C10.6999 4.8933 10.7061 5.08479 10.782 5.25328C10.8592 5.42121 10.9996 5.55201 11.1727 5.61717C11.3458 5.68233 11.5375 5.67656 11.7061 5.60112L13.8847 4.63102C14.0626 4.54959 14.2223 4.43329 14.3542 4.28901C14.4862 4.14473 14.5877 3.9754 14.6529 3.79106C14.7151 3.60589 14.74 3.41018 14.7262 3.21519C14.7124 3.0202 14.6602 2.82978 14.5724 2.65487L13.4737 0.535191C13.3886 0.368347 13.2408 0.24193 13.0627 0.183748C12.8845 0.125566 12.6907 0.140387 12.5238 0.22495C12.357 0.309512 12.2307 0.45689 12.1729 0.634661C12.115 0.812432 12.1303 1.00603 12.2153 1.17288L12.7822 2.30743C10.7049 1.55458 8.42606 1.58079 6.37004 2.38119C4.31402 3.1816 2.62096 4.70164 1.60613 6.65827C0.591293 8.6149 0.323851 10.8748 0.8536 13.0171C1.38335 15.1594 2.67418 17.0381 4.48574 18.3034Z" fill="white"/>
</g>
<defs>
<clipPath id="clip0_3_1052">
<rect width="20" height="20" fill="white"/>
</clipPath>
</defs>
</svg>
