<svg width="22" height="22" viewBox="0 0 22 22" fill="none" xmlns="http://www.w3.org/2000/svg">
<path d="M14.8179 6.73975H7.47697C7.07227 6.73975 6.74414 7.06752 6.74414 7.47258V14.8138C6.74414 15.2189 7.07227 15.5467 7.47697 15.5467H14.8179C15.2229 15.5467 15.5507 15.2189 15.5507 14.8138V7.47259C15.5507 7.06752 15.2229 6.73975 14.8179 6.73975ZM14.085 14.081H8.20982V8.20542H14.085V14.081Z" fill="white"/>
<path d="M12.1016 1.88297L12.831 1.32072C13.5873 0.735144 12.6971 -0.423926 11.9363 0.159954C11.9364 0.159927 9.46198 2.06716 9.46198 2.06716C9.0994 2.37413 9.08352 2.97127 9.49001 3.24957C9.48999 3.24957 11.9364 5.1352 11.9364 5.1352C12.0695 5.23826 12.2269 5.28763 12.383 5.28763C13.0539 5.31294 13.3884 4.37284 12.8309 3.97439C12.831 3.9744 12.0186 3.34815 12.0186 3.34815C15.0643 3.68402 17.6508 5.75339 18.6049 8.7178C18.7051 9.02839 18.9928 9.22591 19.3027 9.22591C19.7878 9.23285 20.1591 8.73098 20.0004 8.26836C18.8588 4.72279 15.7513 2.25395 12.1016 1.88297Z" fill="white"/>
<path d="M11.8488 19.5592C11.9538 19.3503 9.62454 17.1656 9.49923 16.975C8.8304 16.2886 7.78228 17.303 8.44649 17.9942C8.44645 17.9941 9.16118 18.7322 9.16118 18.7322C6.19561 17.9606 3.93376 15.5398 3.41679 12.4692C3.34952 12.0706 2.972 11.8023 2.57231 11.8681C2.17297 11.9354 1.90424 12.3132 1.97116 12.7126C2.59007 16.3851 5.30873 19.276 8.86691 20.1694L8.06429 20.6206C7.22923 21.0937 7.94868 22.3653 8.78214 21.8988C8.78209 21.8988 11.5055 20.368 11.5055 20.368C11.7577 20.1928 11.9543 19.8671 11.8488 19.5592Z" fill="white"/>
</svg>
