<svg width="14" height="17" viewBox="0 0 14 17" fill="none" xmlns="http://www.w3.org/2000/svg">
<path d="M6.89386 7.7072C8.00435 7.7072 8.96594 7.32745 9.75163 6.57818C10.5373 5.82905 10.9356 4.91243 10.9356 3.85348C10.9356 2.7949 10.5373 1.87816 9.7515 1.12877C8.96569 0.379757 8.00422 0 6.89386 0C5.78325 0 4.82191 0.379757 4.03623 1.1289C3.25054 1.87803 2.85213 2.79477 2.85213 3.85348C2.85213 4.91243 3.25054 5.82917 4.03636 6.57831C4.82217 7.32732 5.78364 7.7072 6.89386 7.7072Z" fill="white" fill-opacity="0.2"/>
<path d="M13.9661 12.9895C13.9434 12.6778 13.8976 12.3377 13.8301 11.9786C13.762 11.6167 13.6743 11.2747 13.5693 10.9621C13.4609 10.639 13.3134 10.3199 13.1311 10.0141C12.9419 9.69672 12.7196 9.42035 12.4702 9.19294C12.2094 8.95502 11.8902 8.76374 11.5209 8.62422C11.153 8.48542 10.7452 8.41511 10.3091 8.41511C10.1378 8.41511 9.97209 8.48213 9.65216 8.68073C9.45526 8.80317 9.22494 8.94477 8.96787 9.10139C8.74805 9.23493 8.45026 9.36005 8.08245 9.47333C7.7236 9.58405 7.35924 9.6402 6.99962 9.6402C6.64 9.6402 6.27577 9.58405 5.91653 9.47333C5.5491 9.36017 5.25131 9.23505 5.03175 9.10151C4.77711 8.94636 4.54666 8.80476 4.34682 8.68061C4.02727 8.48201 3.86148 8.41499 3.69018 8.41499C3.25387 8.41499 2.84624 8.48542 2.47843 8.62434C2.10946 8.76362 1.79004 8.9549 1.529 9.19306C1.27973 9.4206 1.05736 9.69684 0.868391 10.0141C0.686212 10.3199 0.538727 10.6388 0.430163 10.9622C0.32531 11.2748 0.237614 11.6167 0.169505 11.9786C0.102036 12.3372 0.0562028 12.6774 0.0335425 12.9899C0.0112662 13.296 0 13.6138 0 13.9347C0 14.7699 0.278453 15.4461 0.827551 15.9447C1.36986 16.4368 2.08744 16.6864 2.96006 16.6864H11.0399C11.9126 16.6864 12.6299 16.4369 13.1723 15.9447C13.7215 15.4464 14 14.7702 14 13.9346C13.9999 13.6122 13.9885 13.2942 13.9661 12.9895Z" fill="white" fill-opacity="0.2"/>
</svg>
