<svg width="50" height="50" viewBox="0 0 50 50" fill="none" xmlns="http://www.w3.org/2000/svg">
<path d="M6.24997 3.00001C6.24997 1.34296 7.59293 0 9.24998 0H31.25L43.75 10.5V47C43.75 48.657 42.4071 50 40.75 50H9.24998C7.59293 50 6.24997 48.657 6.24997 47V3.00001Z" fill="#42A5F5"/>
<path d="M31.25 0V7.49997C31.25 9.15701 32.5929 10.5 34.25 10.5H43.75" fill="#1E88E5"/>
<path d="M15.8132 21.4862H14.2568V26.778C14.2568 27.3486 14.1946 27.8674 13.3852 27.8674C12.5551 27.8674 12.4721 27.2968 12.4721 26.1243H11.0195C11.0195 27.5458 11.0195 29.1229 13.4994 29.1229C14.9935 29.1229 15.8132 28.3551 15.8132 26.778V21.4862Z" fill="white"/>
<path d="M16.9615 26.6431C16.9615 27.5665 17.4284 29.1333 20.1469 29.1333C20.8006 29.1333 23.0833 28.9362 23.0833 26.695C23.0833 25.3564 22.1495 24.9414 21.1326 24.6924L19.3168 24.2462C19.0055 24.1736 18.5282 24.0491 18.5282 23.468C18.5282 22.7936 19.2338 22.5757 19.8252 22.5757C21.1845 22.5757 21.309 23.3643 21.3505 23.6963H22.8446C22.8343 22.7832 22.2221 21.2891 19.9394 21.2891C17.5218 21.2891 17.0756 22.7521 17.0756 23.5822C17.0756 25.2216 18.2377 25.4913 19.4413 25.7715L20.2403 25.9583C21.0288 26.145 21.5892 26.3007 21.5892 26.8817C21.5892 27.6703 20.7694 27.8467 20.0328 27.8467C18.6735 27.8467 18.466 27.0581 18.4556 26.6431H16.9615Z" fill="white"/>
<path d="M23.934 25.2112C23.934 28.7079 26.528 29.1333 27.5138 29.1333C28.4995 29.1333 31.0935 28.7079 31.0935 25.2112C31.0935 21.7145 28.4995 21.2891 27.5138 21.2891C26.528 21.2891 23.934 21.7145 23.934 25.2112ZM25.4904 25.2112C25.4904 23.1256 26.6733 22.6068 27.5138 22.6068C28.3542 22.6068 29.5371 23.1256 29.5371 25.2112C29.5371 27.2968 28.3542 27.8156 27.5138 27.8156C26.6733 27.8156 25.4904 27.2968 25.4904 25.2112Z" fill="white"/>
<path d="M36.8866 26.6742H36.8659L33.9087 21.4862H32.2693V28.9362H33.7219V23.6237H33.7427L36.7828 28.9362H38.3392V21.4862H36.8866V26.6742Z" fill="white"/>
</svg>
