<svg width="50" height="50" viewBox="0 0 50 50" fill="none" xmlns="http://www.w3.org/2000/svg">
<path d="M6.24997 3.00001C6.24997 1.34296 7.59293 0 9.24998 0H31.25L43.75 10.5V47C43.75 48.657 42.4071 50 40.75 50H9.24998C7.59293 50 6.24997 48.657 6.24997 47V3.00001Z" fill="#D22600"/>
<path d="M31.25 0V7.49997C31.25 9.15701 32.5929 10.5 34.25 10.5H43.75" fill="#AC2200"/>
<path d="M16.2039 42.975C15.5664 42.975 14.9305 42.768 14.314 42.3578C13.0297 41.5055 12.7898 40.4344 12.8141 39.6859C12.9008 37.0562 16.4563 34.3774 19.6234 32.5078C19.9844 30.2157 20.1688 27.7367 20.1492 25.4172C17.5124 23.068 14.6452 19.8844 14.9992 17.3929C15.0976 16.6992 15.4828 15.7492 16.7538 15.1632C17.2132 14.9507 17.6734 14.8438 18.1202 14.8438C20.7234 14.8438 22.2609 18.2063 22.4703 24.3289C24.2703 25.8516 26.3265 27.3227 28.3476 28.5305C30.2312 27.9039 32.7289 27.2391 34.8211 27.2391C36.4211 27.2391 37.5969 27.6384 38.3157 28.4266C38.7101 28.8594 39.1579 29.629 39.0469 30.8368C38.879 32.6602 37.6024 33.75 35.6321 33.75C33.3446 33.75 30.3586 32.3664 28.1016 31.0977C25.9673 31.8711 23.7446 32.8829 21.7461 33.9915C20.961 38.2156 19.3726 42.9742 16.2039 42.975ZM18.9719 35.696C17.4344 36.753 14.0415 39.3641 15.6102 40.4038C17.2117 41.468 18.4961 37.5273 18.9719 35.696ZM31.2922 30.1094C32.8384 30.8321 36.5556 32.325 36.7126 30.6212C36.8672 28.9343 32.9235 29.7015 31.2922 30.1094ZM22.1875 31.0352C22.2265 31.0609 22.2766 31.0633 22.3188 31.0429C23.3337 30.5359 24.3798 30.057 25.4258 29.6242C25.4711 29.6063 25.5031 29.5633 25.507 29.514C24.5211 28.8641 23.5429 28.168 22.6055 27.4468C22.5648 27.4156 22.5086 27.4085 22.4618 27.4296C22.4164 28.6289 22.3242 29.8438 22.1875 31.0352ZM17.7359 17.2913C16.3445 17.932 18.8898 20.8687 19.9484 21.975C19.7688 20.4555 19.1227 16.6516 17.7359 17.2913Z" fill="white"/>
</svg>
