<svg width="10" height="10" viewBox="0 0 10 10" fill="none" xmlns="http://www.w3.org/2000/svg">
<g clip-path="url(#clip0_134_22)">
<path d="M9.88415 4.64536C9.73217 4.39982 9.46361 4.25305 9.16576 4.25305H2.53368C2.20493 4.25305 1.90593 4.43873 1.77173 4.72624L0.0175781 8.41133C0.0838013 8.68118 0.335343 8.88276 0.634949 8.88276H7.691C7.99267 8.88276 8.26839 8.71183 8.40313 8.44138L9.91932 5.39649C10.039 5.15554 10.0257 4.87476 9.88415 4.64536Z" fill="#9BA0B5"/>
<path d="M1.41411 4.15939C1.54816 3.87197 1.84723 3.68621 2.17606 3.68621H8.42126V2.88585C8.42126 2.55592 8.14347 2.28745 7.80205 2.28745H4.16054C4.1552 2.28745 4.15154 2.28607 4.15016 2.28508L3.49838 1.37197C3.38295 1.20998 3.19229 1.11328 2.98859 1.11328H0.619355C0.277786 1.11328 0 1.38175 0 1.71168V7.12998L1.41411 4.15939Z" fill="#9BA0B5"/>
</g>
<defs>
<clipPath id="clip0_134_22">
<rect width="10" height="10" fill="white"/>
</clipPath>
</defs>
</svg>
